<?xml version="1.0" encoding="utf-8"?>
<!-- Generator: Adobe Illustrator 24.3.0, SVG Export Plug-In . SVG Version: 6.00 Build 0)  -->
<svg version="1.1" xmlns="http://www.w3.org/2000/svg" xmlns:xlink="http://www.w3.org/1999/xlink" x="0px" y="0px"
	 viewBox="0 0 595.28 841.89" style="enable-background:new 0 0 595.28 841.89;" xml:space="preserve">
<style type="text/css">
	.st0{fill:#683335;stroke:#000000;stroke-miterlimit:10;}
	.st1{fill:#1AB8D2;stroke:#000000;stroke-miterlimit:10;}
	.st2{fill:#733E90;stroke:#000000;stroke-miterlimit:10;}
	.st3{fill:#8CC04D;stroke:#000000;stroke-miterlimit:10;}
	.st4{fill:#FCEA12;stroke:#000000;stroke-miterlimit:10;}
	.st5{fill:#63343C;}
	.st6{fill:#8FC14D;stroke:#000000;stroke-miterlimit:10;}
	.st7{fill:#513331;}
	.st8{fill:#64313E;stroke:#000000;stroke-miterlimit:10;}
	.st9{fill:#F49513;stroke:#000000;stroke-miterlimit:10;}
	.st10{fill:#F8E91F;stroke:#000000;stroke-miterlimit:10;}
	.st11{fill:#F39317;stroke:#000000;stroke-miterlimit:10;}
	.st12{fill:#0FA438;stroke:#000000;stroke-width:2;stroke-miterlimit:10;}
	.st13{fill:#04632D;}
	.st14{fill:#B22322;}
	.st15{fill:#05662E;}
	.st16{fill:#0DA338;stroke:#000000;stroke-width:2;stroke-miterlimit:10;}
	.st17{fill:none;stroke:#07642E;stroke-width:2;stroke-miterlimit:10;}
	.st18{fill:#B22322;stroke:#000000;stroke-width:2;stroke-miterlimit:10;}
	.st19{fill:#7F1710;stroke:#7F1710;stroke-width:2;stroke-miterlimit:10;}
	.st20{fill:#FFD700;stroke:#000000;stroke-width:2;stroke-miterlimit:10;}
	.st21{fill:none;stroke:#78170E;stroke-width:2;stroke-miterlimit:10;}
	.st22{fill:none;stroke:#000000;stroke-width:2;stroke-miterlimit:10;}
	.st23{stroke:#000000;stroke-width:2;stroke-miterlimit:10;}
	.st24{fill:none;stroke:#B17513;stroke-width:2;stroke-miterlimit:10;}
	.st25{fill:#B52428;stroke:#000000;stroke-width:2;stroke-miterlimit:10;}
	.st26{fill:#E23258;}
	.st27{fill:#FFFFFF;}
	.st28{fill:#EE7429;stroke:#000000;stroke-width:2;stroke-miterlimit:10;}
	.st29{fill:#8ABF4F;stroke:#000000;stroke-width:2;stroke-miterlimit:10;}
	.st30{fill:#B9B7B5;stroke:#000000;stroke-width:2;stroke-miterlimit:10;}
	.st31{fill:#FCBF0E;stroke:#000000;stroke-miterlimit:10;}
	.st32{fill:#EE712B;stroke:#000000;stroke-miterlimit:10;}
	.st33{fill:#8ABF4C;stroke:#000000;stroke-width:2;stroke-miterlimit:10;}
	.st34{fill:#8ABF4C;stroke:#000000;stroke-miterlimit:10;}
	.st35{fill:#FFFFFF;stroke:#000000;stroke-width:2;stroke-miterlimit:10;}
	.st36{stroke:#000000;stroke-miterlimit:10;}
	.st37{fill:#B77B45;stroke:#000000;stroke-miterlimit:10;}
	.st38{fill:#FDC83C;stroke:#000000;stroke-miterlimit:10;}
	.st39{fill:#FECB3D;stroke:#000000;stroke-miterlimit:10;}
	.st40{fill:#A6CE88;stroke:#000000;stroke-width:2;stroke-miterlimit:10;}
	.st41{fill:#A6CE88;stroke:#000000;stroke-miterlimit:10;}
	.st42{fill:#F6B5C1;stroke:#000000;stroke-width:2;stroke-miterlimit:10;}
	.st43{fill:#FCDBBA;stroke:#000000;stroke-width:2;stroke-miterlimit:10;}
	.st44{fill:#FDFEFD;}
	.st45{fill:#FDD9BA;stroke:#000000;stroke-width:2;stroke-miterlimit:10;}
	.st46{fill:#F6F099;stroke:#000000;stroke-width:2;stroke-miterlimit:10;}
	.st47{fill:#F7BDCB;stroke:#000000;stroke-miterlimit:10;}
	.st48{fill:#BCE1E6;stroke:#000000;stroke-width:2;stroke-miterlimit:10;}
	.st49{fill:#F7BCCC;stroke:#000000;stroke-width:2;stroke-miterlimit:10;}
	.st50{fill:#C0E3EA;stroke:#000000;stroke-miterlimit:10;}
	.st51{fill:#F6B5C1;}
	.st52{fill:#FFFFFF;stroke:#FFFFFF;stroke-width:2;stroke-miterlimit:10;}
	.st53{fill:#30538C;stroke:#000000;stroke-width:2;stroke-miterlimit:10;}
	.st54{fill:#FDC83C;stroke:#000000;stroke-width:2;stroke-miterlimit:10;}
	.st55{fill:#88CFED;stroke:#000000;stroke-width:2;stroke-miterlimit:10;}
	.st56{fill:#D52586;}
	.st57{fill:#1BA038;stroke:#000000;stroke-width:2;stroke-miterlimit:10;}
	.st58{fill:#1BA038;}
	.st59{enable-background:new    ;}
	.st60{fill:#818181;}
	.st61{fill:#9A9A9A;}
	.st62{fill:#AFAFAF;}
	.st63{clip-path:url(#SVGID_2_);}
	.st64{fill:#FCDF02;}
	.st65{fill:#663413;}
	.st66{fill:url(#SVGID_5_);}
	.st67{fill:url(#SVGID_6_);}
	.st68{fill:url(#SVGID_7_);}
	.st69{fill:url(#SVGID_8_);}
	.st70{fill:url(#SVGID_9_);}
	.st71{fill:url(#SVGID_10_);}
	.st72{fill:url(#SVGID_11_);}
	.st73{fill:url(#SVGID_12_);}
	.st74{fill:url(#SVGID_13_);}
	.st75{fill:url(#SVGID_14_);}
	.st76{fill:url(#SVGID_15_);}
	.st77{fill:url(#SVGID_16_);}
	.st78{fill:url(#SVGID_17_);}
	.st79{fill:url(#SVGID_18_);}
	.st80{fill:url(#SVGID_19_);}
	.st81{fill:url(#SVGID_20_);}
	.st82{fill:url(#SVGID_21_);}
	.st83{fill:url(#SVGID_22_);}
	.st84{fill:url(#SVGID_23_);}
	.st85{fill:url(#SVGID_24_);}
	.st86{fill:url(#SVGID_25_);}
	.st87{fill:url(#SVGID_26_);}
	.st88{fill:url(#SVGID_27_);}
	.st89{fill:url(#SVGID_28_);}
	.st90{fill:url(#SVGID_29_);}
	.st91{fill:url(#SVGID_30_);}
	.st92{fill:url(#SVGID_31_);}
	.st93{fill:url(#SVGID_32_);}
	.st94{fill:url(#SVGID_33_);}
	.st95{fill:url(#SVGID_34_);}
	.st96{fill:url(#SVGID_35_);}
	.st97{fill:url(#SVGID_36_);}
	.st98{fill:url(#SVGID_37_);}
	.st99{fill:url(#SVGID_38_);}
	.st100{fill:url(#SVGID_39_);}
	.st101{fill:url(#SVGID_40_);}
	.st102{fill:url(#SVGID_41_);}
	.st103{fill:url(#SVGID_42_);}
	.st104{fill:url(#SVGID_43_);}
	.st105{fill:url(#SVGID_44_);}
	.st106{fill:url(#SVGID_45_);}
	.st107{fill:url(#SVGID_46_);}
	.st108{fill:url(#SVGID_47_);}
	.st109{fill:url(#SVGID_48_);}
	.st110{fill:url(#SVGID_49_);}
	.st111{fill:url(#SVGID_50_);}
	.st112{fill:url(#SVGID_51_);}
	.st113{fill:url(#SVGID_52_);}
	.st114{fill:url(#SVGID_53_);}
	.st115{fill:url(#SVGID_54_);}
	.st116{fill:url(#SVGID_55_);}
	.st117{fill:url(#SVGID_56_);}
	.st118{fill:url(#SVGID_57_);}
	.st119{fill:url(#SVGID_58_);}
	.st120{fill:url(#SVGID_59_);}
	.st121{fill:url(#SVGID_60_);}
	.st122{fill:url(#SVGID_61_);}
	.st123{fill:url(#SVGID_62_);}
	.st124{fill:url(#SVGID_63_);}
	.st125{fill:url(#SVGID_64_);}
	.st126{fill:url(#SVGID_65_);}
	.st127{fill:url(#SVGID_66_);}
	.st128{fill:url(#SVGID_67_);}
	.st129{fill:url(#SVGID_68_);}
	.st130{fill:url(#SVGID_69_);}
	.st131{fill:url(#SVGID_70_);}
	.st132{fill:url(#SVGID_71_);}
	.st133{fill:url(#SVGID_72_);}
	.st134{fill:url(#SVGID_73_);}
	.st135{fill:url(#SVGID_74_);}
	.st136{fill:url(#SVGID_75_);}
	.st137{fill:url(#SVGID_76_);}
	.st138{fill:url(#SVGID_77_);}
	.st139{fill:url(#SVGID_78_);}
	.st140{fill:url(#SVGID_79_);}
	.st141{fill:url(#SVGID_80_);}
	.st142{fill:url(#SVGID_81_);}
	.st143{fill:url(#SVGID_82_);}
	.st144{fill:url(#SVGID_83_);}
	.st145{fill:url(#SVGID_84_);}
	.st146{fill:url(#SVGID_85_);}
	.st147{fill:url(#SVGID_86_);}
	.st148{fill:url(#SVGID_87_);}
	.st149{fill:url(#SVGID_88_);}
	.st150{fill:url(#SVGID_89_);}
	.st151{fill:url(#SVGID_90_);}
	.st152{fill:url(#SVGID_91_);}
	.st153{fill:url(#SVGID_92_);}
	.st154{fill:url(#SVGID_93_);}
	.st155{fill:url(#SVGID_94_);}
	.st156{fill:url(#SVGID_95_);}
	.st157{fill:url(#SVGID_96_);}
	.st158{fill:url(#SVGID_97_);}
	.st159{fill:url(#SVGID_98_);}
	.st160{fill:url(#SVGID_99_);}
	.st161{fill:url(#SVGID_100_);}
	.st162{fill:url(#SVGID_101_);}
	.st163{fill:url(#SVGID_102_);}
	.st164{fill:url(#SVGID_103_);}
	.st165{fill:url(#SVGID_104_);}
	.st166{fill:url(#SVGID_105_);}
	.st167{fill:url(#SVGID_106_);}
	.st168{fill:url(#SVGID_107_);}
	.st169{fill:url(#SVGID_108_);}
	.st170{fill:url(#SVGID_109_);}
	.st171{fill:url(#SVGID_110_);}
	.st172{fill:url(#SVGID_111_);}
	.st173{fill:url(#SVGID_112_);}
	.st174{fill:url(#SVGID_113_);}
	.st175{fill:url(#SVGID_114_);}
	.st176{fill:url(#SVGID_115_);}
	.st177{fill:url(#SVGID_116_);}
	.st178{fill:url(#SVGID_117_);}
	.st179{fill:url(#SVGID_118_);}
	.st180{fill:url(#SVGID_119_);}
	.st181{fill:url(#SVGID_120_);}
	.st182{fill:url(#SVGID_121_);}
	.st183{fill:url(#SVGID_122_);}
	.st184{fill:url(#SVGID_123_);}
	.st185{fill:url(#SVGID_124_);}
	.st186{fill:url(#SVGID_125_);}
	.st187{fill:url(#SVGID_126_);}
	.st188{fill:url(#SVGID_127_);}
	.st189{fill:url(#SVGID_128_);}
	.st190{fill:url(#SVGID_129_);}
	.st191{fill:url(#SVGID_130_);}
	.st192{fill:url(#SVGID_131_);}
	.st193{fill:url(#SVGID_132_);}
	.st194{fill:url(#SVGID_133_);}
	.st195{fill:url(#SVGID_134_);}
	.st196{fill:url(#SVGID_135_);}
	.st197{fill:url(#SVGID_136_);}
</style>
<g id="Layer_2">
	<g>
		<path class="st0" d="M298.72,612.22c0,0-37.83-37.24-44.83-69.24c-1.67-7.65-0.75-17.41,0.41-25.07
			c3.17-21.01,15.81-37.32,28.24-53.78c22.46-29.72,70.27-62.61,58.7-105.82c-0.97-3.62-2.42-7.11-4.35-10.33l-1-15
			c0,0,14.87,9.91,15,10c9.17,6.12,11.39,19.56,13.16,29.56c2.84,16.06,2.48,33-2.92,48.5c-4.42,12.68-11.74,24.23-17.27,36.43
			c-8.04,17.74-14.33,36.67-14.62,56.32c-0.57,39.35,29.84,75.33,59.34,98.43"/>
		<path class="st1" d="M216.69,644.1c4.19,1.18,10.14,0.38,13.7,0.38c7.23,0,14.45,0,21.68,0c20.38,0,40.76,0,61.14,0
			c22.28,0,44.57,0,66.85,0c16.99,0,33.98,0,50.97,0c5.32,0,11.06,1.08,16.21-0.65c6.22-2.09,6.79-7.33,6.8-13.15
			c0.01-5.06-0.9-11.09-4.66-14.8c-3.8-3.75-9.33-3.4-14.26-3.4c-5.66,0-11.31,0-16.97,0c-19.38,0-38.77,0-58.15,0
			c-22.56,0-45.11,0-67.67,0c-17.76,0-35.52,0-53.27,0c-7.15,0-17.06-1.44-23.23,2.46c-4.24,2.68-5.19,7.6-5.26,12.27
			c-0.07,4.56-0.51,10.82,2.4,14.62C213.84,642.95,215.15,643.66,216.69,644.1z"/>
		<path class="st2" d="M222.89,644.98h217.87c-4,17.44-8,34.87-12,52.31c-1.75,7.61-3.49,15.22-5.24,22.83
			c-1.95,8.52-2.95,18.03-6.95,25.83c-2.62,5.11-7.1,9.58-12.72,10.75c-1.99,0.41-4.04,0.41-6.07,0.4
			c-33.49,0-66.98-0.11-100.47-0.11c-7.51,0-15.01,0-22.52,0c-8.79,0-17.24,0.82-24.12-6c-7.11-7.06-7.91-20.2-10.12-29.74
			c-2.58-11.16-5.17-22.32-7.75-33.48C229.49,673.49,226.19,659.24,222.89,644.98z"/>
		<path class="st3" d="M268.39,474.48c1.58-1.12-9.1-18.58-9.92-19.82c-7.31-10.99-17.45-21.05-30.06-25.63
			c-11.37-4.13-25.76-1.86-37.02,1.45c0,0-24,9-35,10c0,0-32,6-51-8c0,0,10,54,63,69C168.39,501.48,217.39,510.48,268.39,474.48z"/>
		<path class="st4" d="M242.89,173.87c-0.29-0.14-0.09-5.06-0.09-5.41c0.03-4.68,0.27-9.37,0.69-14.03
			c1.23-13.39,3.95-26.93,9.55-39.22c5.66-12.43,16.04-26.07,30.06-29.48c5.46-1.33,11.86-1.37,17.13,0.74
			c7.85,3.13,13.68,9.74,18.26,16.62c7.76,11.64,13.15,24.86,15.72,38.61c0.96,5.12,1.56,10.31,1.84,15.52
			c0.15,2.78,0.47,5.81,0.61,8.7c0.11,2.39,0.78,6.23-1.16,8.08c-0.42,0.4-1.33,0.64-1.84,0.91c-2.48,1.29-4.88,2.74-7.22,4.26
			c-7.69,4.98-14.86,10.87-20.97,17.71c-3.23,3.62-6.16,7.51-8.61,11.7c-0.93-0.17-2.8-0.36-2.8-0.36s-0.67-43.73-6.67-71.73
			c0,0-4.33,36.45-2.66,71.73c-0.67,0.55-2.04,0.24-2.04,0.24S259.39,181.48,242.89,173.87z"/>
		<path class="st4" d="M383.31,253.48c0,0,50.07-26,57.07-64c1.67-9.08-1.61-18.83-8.22-25.19c-13.16-12.66-33.71-11.85-50.53-9.2
			c-7.65,1.2-15.19,3.18-22.42,5.97c-4.11,1.58-8.12,3.42-11.99,5.52c-2,1.08-3.95,2.23-5.87,3.44c-1.04,0.66-5.57,2.83-5.84,3.98
			c-0.23,0.98,3.81,18.64-10.65,50.06c-0.92,0.85,2.54,2.98,2.54,3.21s40-23.78,61-33.78c0,0-2.43,7.1-56.71,41.05
			c0.43,0.9,1.48,3.55,1.48,3.55S366.24,241.48,383.31,253.48z"/>
		<path class="st4" d="M335.89,332.98c0,0,39.46,28.34,81.98,19.42c0.04,0.16,27.52-7.92,22.52-37.92c0,0-6.15-32-57.07-61
			c0.15,0-13.85,12.02-50.39,16.01c0.93-0.02-0.66,2.23-1.1,2.61c-0.44,0.38,53.56,28.38,60.56,38.38c0,0-25-7.54-65-30.77
			c0-0.46-2.17,2.77-2.17,2.77S333.39,295.48,335.89,332.98z"/>
		<path class="st4" d="M242.89,332.98c-0.67,11.92,0.28,24.2,2.46,35.91c1.38,7.39,3.38,14.75,6.6,21.56
			c3.47,7.35,8.3,14.09,13.99,19.89c5.44,5.53,11.99,11.14,20.02,11.95c6.71,0.67,13.8-1.48,19.38-5.18
			c6.37-4.22,11.4-10.29,15.55-16.63c10.16-15.51,14.57-34.21,16-52.5c0,1-1-13.75-1-13.75s-30.5-17.1-38.5-35.93
			c-1,0.35-3.94,0.68-3.94,0.68s2.95,53.5-2.05,70.5c0,0-6.26-28-6.63-70.5c-0.74,1-3.57-0.71-3.57-0.71
			S276.39,315.48,242.89,332.98z"/>
		<path class="st4" d="M195.4,253.48c-0.96-0.55-7.34,3.91-8.15,4.4c-6.67,3.98-13,8.55-18.87,13.63
			c-8.52,7.38-16.33,15.78-22.29,25.39c-5.88,9.48-11.15,21.17-8.28,32.47c2.43,9.58,9.51,17.31,18.54,21.16
			c9.4,4.01,19.84,4.04,29.84,2.88c8.57-0.99,17.11-2.44,25.43-4.79c7.22-2.04,11.8-3.47,18.78-6.15
			c3.41-1.31,10.83-3.87,12.23-7.94c0.44-1.27,0.18-2.63,0.15-4.02c-0.18-7.51,0.48-15.08,1.83-22.47
			c1.63-8.9,4.38-17.73,8.95-25.58c-0.33,0-2.17-2.77-2.17-2.77s-24,16.78-62.5,33.28c1,0,21.64-21.25,58.07-40.87
			c0.86,0.75-1.34-3.94-1.34-3.94S223.41,269.48,195.4,253.48z"/>
		<path class="st4" d="M195.4,253.48c0,0-47.01-22-57.01-63c0,0-7.47-31.99,29.27-37c-0.53-0.01,35.73-6.22,75.23,20.39
			c0-0.79-0.33,33.67,11.08,50.14c0.83,0.94-2.58,2.63-2.58,2.63s-54-30.16-66-29.16c0,0,35.44,25.1,61.72,37.05
			c0.56-0.1-1.49,3.55-1.49,3.55S212.41,241.48,195.4,253.48z"/>
		<polygon class="st5" points="266.89,469.98 178.89,468.98 260.89,478.98 267.89,473.98 		"/>
		<path class="st6" d="M365.89,430.98c-0.44-0.3,4.33-8.52,4.63-9.05c3.66-6.23,8.04-12.17,13.46-16.99
			c3.56-3.17,7.62-5.87,12.14-7.45c6.6-2.32,16-2.36,22.77-0.52c8.07,2.2,16.02,4.79,24.13,6.83c8.14,2.05,16.95,3.04,25.34,3
			c7.79-0.04,14.64-4.77,21.52-7.83c0,0-9,44-46,53C443.89,451.98,407.89,459.98,365.89,430.98z"/>
		<path class="st7" d="M367.89,426.98l65.5-0.5c0,0-4,3-29,5l-33,3l-5.5-3.5L367.89,426.98z"/>
		<path class="st8" d="M291.39,369.48c0,0-2.26-14-6.63-70.5c-0.74,0,8.68,0,8.68,0S294.39,360.48,291.39,369.48z"/>
		<path class="st8" d="M188.89,312.98c0,0,10.14-11.75,58.07-40.87c-0.14-0.25,4.43,7.6,4.43,7.6S202.89,308.98,188.89,312.98z"/>
		<path class="st8" d="M247.11,234.53c0,0-33.72-18.05-61.72-37.05c0,0,25,6.32,66,29.16C251.39,226.32,247.11,234.53,247.11,234.53
			z"/>
		<path class="st8" d="M287.39,136.48c0,0-4.33,26.45-2.66,71.73c0.33,0.55,9.33,0,9.33,0S292.39,158.48,287.39,136.48z"/>
		<path class="st8" d="M388.39,193.48l-61,33.78l4.29,7.27C331.67,234.53,384.39,200.48,388.39,193.48z"/>
		<path class="st8" d="M392.39,310.48c0,0-15.13-13.76-60.56-38.38l-4.44,7.61C327.39,279.71,387.39,311.48,392.39,310.48z"/>
		<path class="st9" d="M242.89,173.87c0,0,0.67,36.67,11.08,50.14c0.83,0.94,8.01-13.59,28.71-15.56
			C283.09,208.51,250.39,174.27,242.89,173.87z"/>
		<path class="st9" d="M335.89,173.87c0,0-27.57,14.78-39.04,34.69c0.07-0.17,19.46,3.06,28,15.49
			C323.93,224.91,337.39,204.27,335.89,173.87z"/>
		<path class="st9" d="M383.31,253.48c0,0-16.39-11.79-50.16-15.39c0.46,0.79,6.3,19.42-0.23,31.41
			C332.85,269.47,377.24,261.48,383.31,253.48z"/>
		<path class="st9" d="M335.89,332.98c0,0-1.84-36.5-10.67-50.5c0.34,0-11.84,13.65-27.83,15.83
			C297.39,298.65,316.39,325.48,335.89,332.98z"/>
		<path class="st9" d="M242.89,332.98c0,0,30.11-16.92,38.3-34.71c0,0-15.47-1.79-27.64-15.79
			C253.22,282.48,241.39,308.48,242.89,332.98z"/>
		<path class="st9" d="M195.4,253.48c0,0,17.45-11.79,50.22-15.39c-0.46,0.79-7.77,17.18,0,30.79
			C245.16,268.09,226.41,270.48,195.4,253.48z"/>
		<ellipse class="st10" cx="289.39" cy="253.48" rx="46.5" ry="45.5"/>
		<circle class="st11" cx="289.39" cy="253.48" r="38"/>
	</g>
</g>
<g id="Layer_3">
</g>
<g id="Layer_4">
</g>
<g id="Layer_5">
</g>
<g id="Layer_6">
</g>
</svg>
