<?xml version="1.0" encoding="utf-8"?>
<!-- Generator: Adobe Illustrator 24.3.0, SVG Export Plug-In . SVG Version: 6.00 Build 0)  -->
<svg version="1.1" xmlns="http://www.w3.org/2000/svg" xmlns:xlink="http://www.w3.org/1999/xlink" x="0px" y="0px"
	 viewBox="0 0 595.28 841.89" style="enable-background:new 0 0 595.28 841.89;" xml:space="preserve">
<style type="text/css">
	.st0{fill:#683335;stroke:#000000;stroke-miterlimit:10;}
	.st1{fill:#1AB8D2;stroke:#000000;stroke-miterlimit:10;}
	.st2{fill:#733E90;stroke:#000000;stroke-miterlimit:10;}
	.st3{fill:#8CC04D;stroke:#000000;stroke-miterlimit:10;}
	.st4{fill:#FCEA12;stroke:#000000;stroke-miterlimit:10;}
	.st5{fill:#63343C;}
	.st6{fill:#8FC14D;stroke:#000000;stroke-miterlimit:10;}
	.st7{fill:#513331;}
	.st8{fill:#64313E;stroke:#000000;stroke-miterlimit:10;}
	.st9{fill:#F49513;stroke:#000000;stroke-miterlimit:10;}
	.st10{fill:#F8E91F;stroke:#000000;stroke-miterlimit:10;}
	.st11{fill:#F39317;stroke:#000000;stroke-miterlimit:10;}
	.st12{fill:#0FA438;stroke:#000000;stroke-width:2;stroke-miterlimit:10;}
	.st13{fill:#04632D;}
	.st14{fill:#B22322;}
	.st15{fill:#05662E;}
	.st16{fill:#0DA338;stroke:#000000;stroke-width:2;stroke-miterlimit:10;}
	.st17{fill:none;stroke:#07642E;stroke-width:2;stroke-miterlimit:10;}
	.st18{fill:#B22322;stroke:#000000;stroke-width:2;stroke-miterlimit:10;}
	.st19{fill:#7F1710;stroke:#7F1710;stroke-width:2;stroke-miterlimit:10;}
	.st20{fill:#FFD700;stroke:#000000;stroke-width:2;stroke-miterlimit:10;}
	.st21{fill:none;stroke:#78170E;stroke-width:2;stroke-miterlimit:10;}
	.st22{fill:none;stroke:#000000;stroke-width:2;stroke-miterlimit:10;}
	.st23{stroke:#000000;stroke-width:2;stroke-miterlimit:10;}
	.st24{fill:none;stroke:#B17513;stroke-width:2;stroke-miterlimit:10;}
	.st25{fill:#B52428;stroke:#000000;stroke-width:2;stroke-miterlimit:10;}
	.st26{fill:#E23258;}
	.st27{fill:#FFFFFF;}
	.st28{fill:#EE7429;stroke:#000000;stroke-width:2;stroke-miterlimit:10;}
	.st29{fill:#8ABF4F;stroke:#000000;stroke-width:2;stroke-miterlimit:10;}
	.st30{fill:#B9B7B5;stroke:#000000;stroke-width:2;stroke-miterlimit:10;}
	.st31{fill:#FCBF0E;stroke:#000000;stroke-miterlimit:10;}
	.st32{fill:#EE712B;stroke:#000000;stroke-miterlimit:10;}
	.st33{fill:#8ABF4C;stroke:#000000;stroke-width:2;stroke-miterlimit:10;}
	.st34{fill:#8ABF4C;stroke:#000000;stroke-miterlimit:10;}
	.st35{fill:#FFFFFF;stroke:#000000;stroke-width:2;stroke-miterlimit:10;}
	.st36{stroke:#000000;stroke-miterlimit:10;}
	.st37{fill:#B77B45;stroke:#000000;stroke-miterlimit:10;}
	.st38{fill:#FDC83C;stroke:#000000;stroke-miterlimit:10;}
	.st39{fill:#FECB3D;stroke:#000000;stroke-miterlimit:10;}
	.st40{fill:#A6CE88;stroke:#000000;stroke-width:2;stroke-miterlimit:10;}
	.st41{fill:#A6CE88;stroke:#000000;stroke-miterlimit:10;}
	.st42{fill:#F6B5C1;stroke:#000000;stroke-width:2;stroke-miterlimit:10;}
	.st43{fill:#FCDBBA;stroke:#000000;stroke-width:2;stroke-miterlimit:10;}
	.st44{fill:#FDFEFD;}
	.st45{fill:#FDD9BA;stroke:#000000;stroke-width:2;stroke-miterlimit:10;}
	.st46{fill:#F6F099;stroke:#000000;stroke-width:2;stroke-miterlimit:10;}
	.st47{fill:#F7BDCB;stroke:#000000;stroke-miterlimit:10;}
	.st48{fill:#BCE1E6;stroke:#000000;stroke-width:2;stroke-miterlimit:10;}
	.st49{fill:#F7BCCC;stroke:#000000;stroke-width:2;stroke-miterlimit:10;}
	.st50{fill:#C0E3EA;stroke:#000000;stroke-miterlimit:10;}
	.st51{fill:#F6B5C1;}
	.st52{fill:#FFFFFF;stroke:#FFFFFF;stroke-width:2;stroke-miterlimit:10;}
	.st53{fill:#30538C;stroke:#000000;stroke-width:2;stroke-miterlimit:10;}
	.st54{fill:#FDC83C;stroke:#000000;stroke-width:2;stroke-miterlimit:10;}
	.st55{fill:#88CFED;stroke:#000000;stroke-width:2;stroke-miterlimit:10;}
	.st56{fill:#D52586;}
	.st57{fill:#1BA038;stroke:#000000;stroke-width:2;stroke-miterlimit:10;}
	.st58{fill:#1BA038;}
	.st59{enable-background:new    ;}
	.st60{fill:#818181;}
	.st61{fill:#9A9A9A;}
	.st62{fill:#AFAFAF;}
	.st63{clip-path:url(#SVGID_2_);}
	.st64{fill:#FCDF02;}
	.st65{fill:#663413;}
	.st66{fill:url(#SVGID_5_);}
	.st67{fill:url(#SVGID_6_);}
	.st68{fill:url(#SVGID_7_);}
	.st69{fill:url(#SVGID_8_);}
	.st70{fill:url(#SVGID_9_);}
	.st71{fill:url(#SVGID_10_);}
	.st72{fill:url(#SVGID_11_);}
	.st73{fill:url(#SVGID_12_);}
	.st74{fill:url(#SVGID_13_);}
	.st75{fill:url(#SVGID_14_);}
	.st76{fill:url(#SVGID_15_);}
	.st77{fill:url(#SVGID_16_);}
	.st78{fill:url(#SVGID_17_);}
	.st79{fill:url(#SVGID_18_);}
	.st80{fill:url(#SVGID_19_);}
	.st81{fill:url(#SVGID_20_);}
	.st82{fill:url(#SVGID_21_);}
	.st83{fill:url(#SVGID_22_);}
	.st84{fill:url(#SVGID_23_);}
	.st85{fill:url(#SVGID_24_);}
	.st86{fill:url(#SVGID_25_);}
	.st87{fill:url(#SVGID_26_);}
	.st88{fill:url(#SVGID_27_);}
	.st89{fill:url(#SVGID_28_);}
	.st90{fill:url(#SVGID_29_);}
	.st91{fill:url(#SVGID_30_);}
	.st92{fill:url(#SVGID_31_);}
	.st93{fill:url(#SVGID_32_);}
	.st94{fill:url(#SVGID_33_);}
	.st95{fill:url(#SVGID_34_);}
	.st96{fill:url(#SVGID_35_);}
	.st97{fill:url(#SVGID_36_);}
	.st98{fill:url(#SVGID_37_);}
	.st99{fill:url(#SVGID_38_);}
	.st100{fill:url(#SVGID_39_);}
	.st101{fill:url(#SVGID_40_);}
	.st102{fill:url(#SVGID_41_);}
	.st103{fill:url(#SVGID_42_);}
	.st104{fill:url(#SVGID_43_);}
	.st105{fill:url(#SVGID_44_);}
	.st106{fill:url(#SVGID_45_);}
	.st107{fill:url(#SVGID_46_);}
	.st108{fill:url(#SVGID_47_);}
	.st109{fill:url(#SVGID_48_);}
	.st110{fill:url(#SVGID_49_);}
	.st111{fill:url(#SVGID_50_);}
	.st112{fill:url(#SVGID_51_);}
	.st113{fill:url(#SVGID_52_);}
	.st114{fill:url(#SVGID_53_);}
	.st115{fill:url(#SVGID_54_);}
	.st116{fill:url(#SVGID_55_);}
	.st117{fill:url(#SVGID_56_);}
	.st118{fill:url(#SVGID_57_);}
	.st119{fill:url(#SVGID_58_);}
	.st120{fill:url(#SVGID_59_);}
	.st121{fill:url(#SVGID_60_);}
	.st122{fill:url(#SVGID_61_);}
	.st123{fill:url(#SVGID_62_);}
	.st124{fill:url(#SVGID_63_);}
	.st125{fill:url(#SVGID_64_);}
	.st126{fill:url(#SVGID_65_);}
	.st127{fill:url(#SVGID_66_);}
	.st128{fill:url(#SVGID_67_);}
	.st129{fill:url(#SVGID_68_);}
	.st130{fill:url(#SVGID_69_);}
	.st131{fill:url(#SVGID_70_);}
	.st132{fill:url(#SVGID_71_);}
	.st133{fill:url(#SVGID_72_);}
	.st134{fill:url(#SVGID_73_);}
	.st135{fill:url(#SVGID_74_);}
	.st136{fill:url(#SVGID_75_);}
	.st137{fill:url(#SVGID_76_);}
	.st138{fill:url(#SVGID_77_);}
	.st139{fill:url(#SVGID_78_);}
	.st140{fill:url(#SVGID_79_);}
	.st141{fill:url(#SVGID_80_);}
	.st142{fill:url(#SVGID_81_);}
	.st143{fill:url(#SVGID_82_);}
	.st144{fill:url(#SVGID_83_);}
	.st145{fill:url(#SVGID_84_);}
	.st146{fill:url(#SVGID_85_);}
	.st147{fill:url(#SVGID_86_);}
	.st148{fill:url(#SVGID_87_);}
	.st149{fill:url(#SVGID_88_);}
	.st150{fill:url(#SVGID_89_);}
	.st151{fill:url(#SVGID_90_);}
	.st152{fill:url(#SVGID_91_);}
	.st153{fill:url(#SVGID_92_);}
	.st154{fill:url(#SVGID_93_);}
	.st155{fill:url(#SVGID_94_);}
	.st156{fill:url(#SVGID_95_);}
	.st157{fill:url(#SVGID_96_);}
	.st158{fill:url(#SVGID_97_);}
	.st159{fill:url(#SVGID_98_);}
	.st160{fill:url(#SVGID_99_);}
	.st161{fill:url(#SVGID_100_);}
	.st162{fill:url(#SVGID_101_);}
	.st163{fill:url(#SVGID_102_);}
	.st164{fill:url(#SVGID_103_);}
	.st165{fill:url(#SVGID_104_);}
	.st166{fill:url(#SVGID_105_);}
	.st167{fill:url(#SVGID_106_);}
	.st168{fill:url(#SVGID_107_);}
	.st169{fill:url(#SVGID_108_);}
	.st170{fill:url(#SVGID_109_);}
	.st171{fill:url(#SVGID_110_);}
	.st172{fill:url(#SVGID_111_);}
	.st173{fill:url(#SVGID_112_);}
	.st174{fill:url(#SVGID_113_);}
	.st175{fill:url(#SVGID_114_);}
	.st176{fill:url(#SVGID_115_);}
	.st177{fill:url(#SVGID_116_);}
	.st178{fill:url(#SVGID_117_);}
	.st179{fill:url(#SVGID_118_);}
	.st180{fill:url(#SVGID_119_);}
	.st181{fill:url(#SVGID_120_);}
	.st182{fill:url(#SVGID_121_);}
	.st183{fill:url(#SVGID_122_);}
	.st184{fill:url(#SVGID_123_);}
	.st185{fill:url(#SVGID_124_);}
	.st186{fill:url(#SVGID_125_);}
	.st187{fill:url(#SVGID_126_);}
	.st188{fill:url(#SVGID_127_);}
	.st189{fill:url(#SVGID_128_);}
	.st190{fill:url(#SVGID_129_);}
	.st191{fill:url(#SVGID_130_);}
	.st192{fill:url(#SVGID_131_);}
	.st193{fill:url(#SVGID_132_);}
	.st194{fill:url(#SVGID_133_);}
	.st195{fill:url(#SVGID_134_);}
	.st196{fill:url(#SVGID_135_);}
	.st197{fill:url(#SVGID_136_);}
</style>
<g id="Layer_2">
</g>
<g id="Layer_3">
</g>
<g id="Layer_4">
</g>
<g id="Layer_5">
	<g>
		<path class="st39" d="M67.15,633.49c0,0,0,15.05,0,15.05c-3.31,0-9.47-1.29-9.75,3.61c-0.03,0.62,0.1,1.29,0.57,1.69
			c0.98,0.84,2.7,1.38,3.84,2.19c1.45,1.03,2.89,2.08,4.27,3.19c2.83,2.28,5.47,4.85,7.47,7.89c0.73,1.11,1.63,3.44,2.96,3.89
			c1.26,0.43,2.84-0.51,3.18-1.74c0.26-0.94-0.07-1.92-0.41-2.84c-1.07-2.95-2.25-5.82-4.14-8.35c2.17,2.89,11.31,2.63,14.17,2.04
			c3.1-0.64,2.91-4.1,0.95-6.04c-1.99-1.98-4.61-3.25-7.32-3.98c-2.69-0.72-5.4-0.67-8.11-1.09c-0.35-4.46,0-9.17-0.23-13.71"/>
		<path class="st39" d="M97.97,634.67c0,0,3.8,14.58,3.8,14.58c-3.07,0.8-9.1,1.04-8.11,5.85c0.12,0.61,0.42,1.23,0.95,1.5
			c1.12,0.58,2.85,0.68,4.11,1.19c1.6,0.64,3.2,1.31,4.76,2.06c3.19,1.53,6.28,3.37,8.91,5.84c0.96,0.9,2.38,2.94,3.72,3.06
			c1.28,0.11,2.5-1.18,2.51-2.45c0.01-0.97-0.55-1.84-1.09-2.65c-1.74-2.6-3.55-5.09-5.95-7.09c2.74,2.28,11.13-0.18,13.64-1.45
			c2.7-1.37,1.65-4.67-0.64-6.08c-2.34-1.44-5.09-2.04-7.78-2.08c-2.67-0.05-5.17,0.66-7.78,0.91c-1.45-4.24-2.01-10.73-3.37-15.06"
			/>
		<path class="st40" d="M147.83,565.65c3.07,21.19-6.3,43.06-22.85,56.59c-11.27,9.21-25.93,13.1-40.26,13.69
			c-6.07,0.25-11.98-0.63-17.58-2.45c-12.59-4.08-23.56-12.86-30.96-24c-3.83-5.76-6.85-12.04-9.24-18.53"/>
		<path class="st41" d="M147.81,565.68c-3.59-3.1-6.81-6.8-9.22-10.89c-2.18-3.69-3.15-8.18-6.18-11.33
			c-3.78-3.91-8.99-6.13-14.46-5.8c-7.68,0.47-14.52,5.27-20,10.29c0,0,5.57,19.4,1.29,27.7"/>
		<path class="st40" d="M97.95,547.96c2.29,7.56,2.87,15.92,1.94,23.73c-1.24,10.51-6.32,20.8-14.3,27.81
			c-8.7,7.64-20.72,10.03-31.91,7.38c-8.07-1.91-23.56-7.96-23.21-18.29"/>
		<g>
			<g>
				<path d="M71.72,592.47c-5.53,6.33-13.29,10.44-21.66,11.35c-0.66,0.07-1.52,0.46-1.58,1.23c-0.06,0.72,0.74,1.11,1.37,1.05
					c9.42-1.02,18.1-5.52,24.34-12.65c0.47-0.54,0.2-1.25-0.41-1.52C73.08,591.62,72.2,591.93,71.72,592.47L71.72,592.47z"/>
			</g>
		</g>
		<g>
			<g>
				<path d="M60.59,579.88c-5.5,9.03-15.56,14.15-26.1,13.17c-0.6-0.06-1.63,0.22-1.9,0.83c-0.28,0.63,0.25,0.93,0.82,0.98
					c11.88,1.1,23.68-4.6,29.9-14.83C64.07,578.8,61.14,578.97,60.59,579.88L60.59,579.88z"/>
			</g>
		</g>
		<path class="st42" d="M121.95,441.96c-0.38-0.14-0.98-4.23-1.1-4.66c-1.07-3.98-2.39-7.9-3.95-11.71
			c-4.39-10.76-10.77-21.12-19.95-28.43c-6.51-5.18-15.1-9.23-23.61-8.02c-9.59,1.36-14.75,8.32-13.39,17.81c0,1,3,20,19,34
			C78.95,440.96,99.95,433.96,121.95,441.96z"/>
		<path class="st43" d="M141.45,479.46c0.01-1.44-0.23-25.31-19.5-37.5c-13.51-8.55-29.02-6.57-43.15-1.04
			c-3.17,1.24-6.01,3.23-8.47,5.55c-4.93,4.66-8.45,10.58-12.17,16.18c-10.32,15.53-18.49,33.23-24,51.05
			c-6,19.41-8.7,39.87-8.29,60.17c0.11,5.71,0.48,11.41,1.08,17.09c0,0,6-2,16-18c2.71-4.34,4.45-9.41,7.12-13.83
			c4.05-6.73,9.04-13.82,15.78-18.11c11.15-7.11,24.89-3.87,32.1,6.94c-0.41-0.62,7.2-5.96,7.74-6.3
			c5.77-3.67,11.82-5.58,18.53-3.49c2.74,0.85,5.39,2.18,7.44,4.19c3.33,3.26,4.74,7.83,6.8,11.89c1.16,2.28,2.37,4.57,3.9,6.63
			c1.35,1.82,3.66,3.47,5.46,4.77c-0.36-0.26-0.2-5.4-0.25-6.08c-0.18-2.54-0.37-5.09-0.56-7.63c-0.38-5.23-0.76-10.46-1.14-15.69
			c0-5.76-0.85-11.64-1.26-17.39c-0.41-5.67-0.69-11.36-1.43-16.99c-0.01-0.09-0.03-0.17-0.04-0.22"/>
		<path class="st38" d="M165.88,490.91c-7.1-3.58-14.19-7.15-21.29-10.73c-1.27-0.64-2.74-1.29-4.05-0.74
			c-2.48,1.04-2.55,4.99-2.68,7.2c-0.19,3.28,0.06,6.58,0.73,9.79c0.38,1.8,1.02,3.74,2.6,4.67c1.13,0.66,2.55,0.66,3.81,0.31
			s2.4-1.04,3.53-1.7C154.13,496.44,159.93,493.5,165.88,490.91z"/>
		<ellipse class="st36" cx="113.95" cy="481.46" rx="7" ry="8.5"/>
		<circle class="st44" cx="114.95" cy="478.96" r="3"/>
		<path class="st41" d="M219.95,451.96c-6.95,7.99-14.86,17.35-17.81,27.75c-0.6,2.13,0.31,3.62,2.56,3.76
			c3.38,0.2,6.58-1.35,9.63-2.61c2.43-1.01,5.71-1.99,7.62-3.9c-5.29,5.29-13.95,17.13-11.11,25.25c0.21,0.61,0.54,1.2,1.07,1.56
			c0.53,0.37,1.21,0.46,1.86,0.44c3.98-0.11,8.25-3.51,11.47-5.66c3.06-2.04,6.77-4.37,8.71-7.6c-2.16,3.59-4.04,8.39-5.18,12.5
			c-0.7,2.52-2.23,11.47,1.67,12.36c0.85,0.19,1.69-0.32,2.38-0.85c3.35-2.57,6.21-6.1,9.07-9.21c2.46-2.67,5.42-5.51,7.07-8.8
			c-0.35,4.52-1.02,9.12-0.34,13.65c0.24,1.62,0.68,4.24,2.55,4.79c3.45,1.02,5.89-5.94,6.71-8.24c1.85-5.17,3.92-10.15,6.08-15.2"
			/>
		<path class="st35" d="M314.93,374.96c0,0-38.98,11-94.98,77c0,0,15,23,44,40c1,0,18.55-44.25,23.78-49.63"/>
		<path class="st41" d="M551.02,449.46c7.12,8.3,15.23,18.03,18.25,28.84c0.62,2.21-0.32,3.77-2.63,3.91
			c-3.46,0.21-6.74-1.4-9.87-2.71c-2.49-1.05-5.85-2.07-7.8-4.05c5.42,5.5,14.3,17.8,11.38,26.24c-0.22,0.63-0.55,1.25-1.09,1.62
			c-0.55,0.38-1.24,0.48-1.91,0.46c-4.07-0.11-8.45-3.65-11.75-5.88c-3.14-2.11-6.93-4.54-8.92-7.9c2.21,3.73,4.14,8.72,5.31,12.99
			c0.72,2.61,2.29,11.92-1.71,12.85c-0.87,0.2-1.73-0.34-2.43-0.89c-3.43-2.67-6.36-6.34-9.29-9.57c-2.52-2.78-5.56-5.73-7.24-9.15
			c0.36,4.7,1.04,9.48,0.35,14.19c-0.25,1.69-0.69,4.4-2.61,4.98c-3.54,1.06-6.03-6.17-6.88-8.56c-1.9-5.37-4.01-10.55-6.23-15.79"
			/>
		<path class="st35" d="M453.96,371.96c0,0,40.01,11.24,97.49,78.65c0,0-15.4,23.49-45.16,40.85c-1.03,0-19.04-45.2-24.4-50.69"/>
		<path class="st45" d="M289.95,750.96c0,0,54,18,87-2c1.09-0.66-0.39-9.54-0.51-10.58c-0.95-7.84-3.03-15.63-6.66-22.67
			c-1.74-3.37-3.83-6.57-6.3-9.45c-4.2-4.9-7.72-8.17-14.29-8.87c-9.15-0.98-17.58,1.84-25.25,6.66
			c-14.5,9.11-24.51,23.88-31.08,39.42C291.8,745.93,290.84,748.43,289.95,750.96z"/>
		<path class="st45" d="M481.35,750.96c0,0-54,18-87-2c-1.09-0.66,0.39-9.54,0.51-10.58c0.95-7.84,3.03-15.63,6.66-22.67
			c1.74-3.37,3.83-6.57,6.3-9.45c4.2-4.9,7.72-8.17,14.29-8.87c9.15-0.98,17.58,1.84,25.25,6.66c14.5,9.11,24.51,23.88,31.08,39.42
			C479.49,745.93,480.46,748.43,481.35,750.96z"/>
		<path class="st46" d="M339.03,605.93l2.92,91.03c0,0,7,0,12,1l0-87.35L339.03,605.93"/>
		<path class="st47" d="M339.03,605.93l1.92,47.03c0,0,8-0.02,13,0.5l0-45.11L339.03,605.93"/>
		<path class="st46" d="M431.95,605.93l-2.92,91.03c0,0-7,0-12,1l0-87.35L431.95,605.93"/>
		<path class="st47" d="M431.95,605.93l-1.92,47.03c0,0-8-0.02-13,0.5l0-45.11L431.95,605.93"/>
		<path class="st40" d="M273.95,499.96c-4.12,15.4-2.3,32.91,3.15,47.69c12.11,32.82,43.57,54.71,76.85,62.97
			c4.98,1.23,9.99,2.16,14.99,2.78c42.41,5.22,92.33-9.43,114.71-48.36c11.29-19.64,14.47-42.73,13.03-65.07"/>
		<path class="st48" d="M284.28,301.81c-4.81,2.92-9.74,6.7-15.67,5.37c-9.87-2.21-14.78-14.42-11.78-23.52
			c2.03-6.17,4.62-9.2,10.97-13.53l8.93-0.17c-12.98,2.89-23.52-5.75-24.25-17.91c-0.79-13.23,14.94-21.25,27.47-17.09"/>
		<path class="st48" d="M486.45,303.46c4.81,2.92,11.74,7.05,17.67,5.72c9.87-2.21,14.78-14.42,11.78-23.52
			c-2.03-6.17-4.62-9.2-10.97-13.53l-8.93-0.17c12.98,2.89,23.52-5.75,24.25-17.91c0.79-13.23-14.94-21.25-27.47-17.09"/>
		<path class="st49" d="M494.95,260.46c0,63.24-48.8,114.5-109,114.5s-109-51.26-109-114.5c0-4.21-0.25-14.04,2.92-26.45
			c10.58-41.39,51.38-87.95,106.08-88.05C444.99,145.85,494.95,199.93,494.95,260.46z"/>
		<path class="st50" d="M384.95,145.96c-4.08,0.22-8.19,0.89-12.14,1.94c-3.19,0.85-6.45,1.97-9.24,3.77
			c-7.29,4.69-14.14,13.52-15.44,22.22c-0.59,3.92-0.12,8.31,1.93,11.76c1.96,3.29,6.12,4.69,9.83,4.44
			c8.75-0.6,14.79-7.57,18.91-14.66c2.67-4.59,4.59-9.62,5.66-14.83c0.53-2.6,0.86-5.25,0.95-7.9
			C385.48,150.74,385.85,147.75,384.95,145.96"/>
		<path class="st50" d="M384.95,145.96c5.48,0.72,11.26,1.79,16.39,3.89c6.42,2.63,12.1,7.16,16.39,12.58
			c2.2,2.78,3.91,5.79,5.34,9.03c2.93,6.66,0.11,17.37-7.9,18.78c-10.38,1.82-20.7-9.86-24.21-18.28
			C390.95,171.96,385.95,160.96,384.95,145.96"/>
		<path class="st50" d="M384.95,145.96c1.4-3.05,3.09-5.99,4.93-8.79c4.92-7.48,11.79-13.52,19.24-18.4
			c8.8-5.77,25.75-4.98,27.56,7.79c1.08,7.61-3.65,13.83-10.1,17.28c-6.14,3.28-13.29,3.94-20.14,3.92
			C399.3,147.73,391.88,147.85,384.95,145.96"/>
		<path class="st50" d="M384.95,145.96c-0.12-0.28-9.76,1.03-10.44,1.06c-6.05,0.33-12.03,1.02-18.09,0.33
			c-9.41-1.07-20.55-5.97-22.42-16.34c-1.15-6.37,2.22-13.85,8.79-15.55c2.49-0.64,5.11-0.57,7.67-0.3
			c4.89,0.53,9.21,1.87,13.29,4.66c5.95,4.07,11.18,9.43,15.27,15.35C381.34,138.57,383.33,142.18,384.95,145.96z"/>
		<path class="st50" d="M380.77,137.57c-0.74-1.02-1.44-2.07-2.1-3.14c-2.16-3.51-3.91-7.28-5.23-11.19
			c-1.32-3.91-2.22-7.98-2.6-12.09c-0.35-3.81-0.26-7.68,0.41-11.46c0.73-4.09,2.26-8.08,4.87-11.35
			c5.75-7.21,15.28-5.83,19.82,0.61c10.43,14.82,1.38,36.12-7.36,49.49c-0.76,1.16-3.16,6.62-3.63,6.51
			c-0.1-0.03-0.25-0.48-0.29-0.57C384.49,144.06,381.21,138.17,380.77,137.57z"/>
		<ellipse class="st51" cx="320.45" cy="299.96" rx="12" ry="11.5"/>
		<ellipse class="st51" cx="452.45" cy="299.96" rx="12" ry="11.5"/>
		<ellipse class="st52" cx="336.95" cy="260.96" rx="18.5" ry="20.5"/>
		<ellipse class="st52" cx="437.95" cy="260.96" rx="18.5" ry="20.5"/>
		<ellipse class="st53" cx="337.95" cy="261.46" rx="14" ry="16.5"/>
		<ellipse class="st53" cx="438.45" cy="261.96" rx="14" ry="16.5"/>
		<circle class="st27" cx="331.45" cy="254.46" r="5"/>
		<circle class="st27" cx="432.45" cy="254.46" r="5"/>
		<path class="st54" d="M384.71,320.63c-0.62,0.06-1.25-0.16-1.83-0.77c-5.6-5.93-10.01-12.09-11.42-20.29
			c0.97,0.79,11.38,9.39,26.92,0.4c-2.09,1.21,0.06,3.49-3.94,9.49c-2.69,4.04-4.21,6.33-7.52,9.89
			C386.29,320.04,385.51,320.56,384.71,320.63z"/>
		<path class="st54" d="M399.94,295.96c-0.08,0.62-0.22,1.24-0.42,1.84c-1.85,5.58-8.66,6.11-13.64,5.99
			c-4.63-0.11-11.31-0.18-14.42-4.23c-2.97-3.86-1.74-10.01-0.2-14.19c1.85-5.02,7.7-12.42,13.69-12.42
			C394.46,272.96,401.01,287.84,399.94,295.96z"/>
		<path class="st55" d="M273.95,499.96c0,0,13.38-85.54,52.19-143.77c-0.38-0.46,57.44,42.23,119.62,0
			c0.37-0.46,42.65,77.77,50.92,143.77c0.27,0.52-39.12,17.89-41.62,18.96c-11.15,4.78-22.23,9.68-33.55,14.03
			c-15.19,5.83-31.64,14.09-48.15,9c-19.03-5.88-37.1-14.16-55.27-22.24c-4.71-2.09-9.42-4.17-14.17-6.17
			C293.82,509.28,283.76,504.86,273.95,499.96z"/>
		<path class="st40" d="M97.95,547.96c-5.86-8.83-17.46-12.4-27.36-8.95c-10.21,3.55-16.95,13.28-21.61,22.53
			c-3.82,7.58-7.26,14.86-13.04,21.23c-3.45,3.8-5.32,5-4.66,10.19"/>
	</g>
</g>
<g id="Layer_6">
</g>
</svg>
