<?xml version="1.0" encoding="utf-8"?>
<!-- Generator: Adobe Illustrator 24.3.0, SVG Export Plug-In . SVG Version: 6.00 Build 0)  -->
<svg version="1.1" xmlns="http://www.w3.org/2000/svg" xmlns:xlink="http://www.w3.org/1999/xlink" x="0px" y="0px"
	 viewBox="0 0 595.28 841.89" style="enable-background:new 0 0 595.28 841.89;" xml:space="preserve">
<style type="text/css">
	.st0{fill:#683335;stroke:#000000;stroke-miterlimit:10;}
	.st1{fill:#1AB8D2;stroke:#000000;stroke-miterlimit:10;}
	.st2{fill:#733E90;stroke:#000000;stroke-miterlimit:10;}
	.st3{fill:#8CC04D;stroke:#000000;stroke-miterlimit:10;}
	.st4{fill:#FCEA12;stroke:#000000;stroke-miterlimit:10;}
	.st5{fill:#63343C;}
	.st6{fill:#8FC14D;stroke:#000000;stroke-miterlimit:10;}
	.st7{fill:#513331;}
	.st8{fill:#64313E;stroke:#000000;stroke-miterlimit:10;}
	.st9{fill:#F49513;stroke:#000000;stroke-miterlimit:10;}
	.st10{fill:#F8E91F;stroke:#000000;stroke-miterlimit:10;}
	.st11{fill:#F39317;stroke:#000000;stroke-miterlimit:10;}
	.st12{fill:#0FA438;stroke:#000000;stroke-width:2;stroke-miterlimit:10;}
	.st13{fill:#04632D;}
	.st14{fill:#B22322;}
	.st15{fill:#05662E;}
	.st16{fill:#0DA338;stroke:#000000;stroke-width:2;stroke-miterlimit:10;}
	.st17{fill:none;stroke:#07642E;stroke-width:2;stroke-miterlimit:10;}
	.st18{fill:#B22322;stroke:#000000;stroke-width:2;stroke-miterlimit:10;}
	.st19{fill:#7F1710;stroke:#7F1710;stroke-width:2;stroke-miterlimit:10;}
	.st20{fill:#FFD700;stroke:#000000;stroke-width:2;stroke-miterlimit:10;}
	.st21{fill:none;stroke:#78170E;stroke-width:2;stroke-miterlimit:10;}
	.st22{fill:none;stroke:#000000;stroke-width:2;stroke-miterlimit:10;}
	.st23{stroke:#000000;stroke-width:2;stroke-miterlimit:10;}
	.st24{fill:none;stroke:#B17513;stroke-width:2;stroke-miterlimit:10;}
	.st25{fill:#B52428;stroke:#000000;stroke-width:2;stroke-miterlimit:10;}
	.st26{fill:#E23258;}
	.st27{fill:#FFFFFF;}
	.st28{fill:#EE7429;stroke:#000000;stroke-width:2;stroke-miterlimit:10;}
	.st29{fill:#8ABF4F;stroke:#000000;stroke-width:2;stroke-miterlimit:10;}
	.st30{fill:#B9B7B5;stroke:#000000;stroke-width:2;stroke-miterlimit:10;}
	.st31{fill:#FCBF0E;stroke:#000000;stroke-miterlimit:10;}
	.st32{fill:#EE712B;stroke:#000000;stroke-miterlimit:10;}
	.st33{fill:#8ABF4C;stroke:#000000;stroke-width:2;stroke-miterlimit:10;}
	.st34{fill:#8ABF4C;stroke:#000000;stroke-miterlimit:10;}
	.st35{fill:#FFFFFF;stroke:#000000;stroke-width:2;stroke-miterlimit:10;}
	.st36{stroke:#000000;stroke-miterlimit:10;}
	.st37{fill:#B77B45;stroke:#000000;stroke-miterlimit:10;}
	.st38{fill:#FDC83C;stroke:#000000;stroke-miterlimit:10;}
	.st39{fill:#FECB3D;stroke:#000000;stroke-miterlimit:10;}
	.st40{fill:#A6CE88;stroke:#000000;stroke-width:2;stroke-miterlimit:10;}
	.st41{fill:#A6CE88;stroke:#000000;stroke-miterlimit:10;}
	.st42{fill:#F6B5C1;stroke:#000000;stroke-width:2;stroke-miterlimit:10;}
	.st43{fill:#FCDBBA;stroke:#000000;stroke-width:2;stroke-miterlimit:10;}
	.st44{fill:#FDFEFD;}
	.st45{fill:#FDD9BA;stroke:#000000;stroke-width:2;stroke-miterlimit:10;}
	.st46{fill:#F6F099;stroke:#000000;stroke-width:2;stroke-miterlimit:10;}
	.st47{fill:#F7BDCB;stroke:#000000;stroke-miterlimit:10;}
	.st48{fill:#BCE1E6;stroke:#000000;stroke-width:2;stroke-miterlimit:10;}
	.st49{fill:#F7BCCC;stroke:#000000;stroke-width:2;stroke-miterlimit:10;}
	.st50{fill:#C0E3EA;stroke:#000000;stroke-miterlimit:10;}
	.st51{fill:#F6B5C1;}
	.st52{fill:#FFFFFF;stroke:#FFFFFF;stroke-width:2;stroke-miterlimit:10;}
	.st53{fill:#30538C;stroke:#000000;stroke-width:2;stroke-miterlimit:10;}
	.st54{fill:#FDC83C;stroke:#000000;stroke-width:2;stroke-miterlimit:10;}
	.st55{fill:#88CFED;stroke:#000000;stroke-width:2;stroke-miterlimit:10;}
	.st56{fill:#D52586;}
	.st57{fill:#1BA038;stroke:#000000;stroke-width:2;stroke-miterlimit:10;}
	.st58{fill:#1BA038;}
	.st59{enable-background:new    ;}
	.st60{fill:#818181;}
	.st61{fill:#9A9A9A;}
	.st62{fill:#AFAFAF;}
	.st63{clip-path:url(#SVGID_2_);}
	.st64{fill:#FCDF02;}
	.st65{fill:#663413;}
	.st66{fill:url(#SVGID_5_);}
	.st67{fill:url(#SVGID_6_);}
	.st68{fill:url(#SVGID_7_);}
	.st69{fill:url(#SVGID_8_);}
	.st70{fill:url(#SVGID_9_);}
	.st71{fill:url(#SVGID_10_);}
	.st72{fill:url(#SVGID_11_);}
	.st73{fill:url(#SVGID_12_);}
	.st74{fill:url(#SVGID_13_);}
	.st75{fill:url(#SVGID_14_);}
	.st76{fill:url(#SVGID_15_);}
	.st77{fill:url(#SVGID_16_);}
	.st78{fill:url(#SVGID_17_);}
	.st79{fill:url(#SVGID_18_);}
	.st80{fill:url(#SVGID_19_);}
	.st81{fill:url(#SVGID_20_);}
	.st82{fill:url(#SVGID_21_);}
	.st83{fill:url(#SVGID_22_);}
	.st84{fill:url(#SVGID_23_);}
	.st85{fill:url(#SVGID_24_);}
	.st86{fill:url(#SVGID_25_);}
	.st87{fill:url(#SVGID_26_);}
	.st88{fill:url(#SVGID_27_);}
	.st89{fill:url(#SVGID_28_);}
	.st90{fill:url(#SVGID_29_);}
	.st91{fill:url(#SVGID_30_);}
	.st92{fill:url(#SVGID_31_);}
	.st93{fill:url(#SVGID_32_);}
	.st94{fill:url(#SVGID_33_);}
	.st95{fill:url(#SVGID_34_);}
	.st96{fill:url(#SVGID_35_);}
	.st97{fill:url(#SVGID_36_);}
	.st98{fill:url(#SVGID_37_);}
	.st99{fill:url(#SVGID_38_);}
	.st100{fill:url(#SVGID_39_);}
	.st101{fill:url(#SVGID_40_);}
	.st102{fill:url(#SVGID_41_);}
	.st103{fill:url(#SVGID_42_);}
	.st104{fill:url(#SVGID_43_);}
	.st105{fill:url(#SVGID_44_);}
	.st106{fill:url(#SVGID_45_);}
	.st107{fill:url(#SVGID_46_);}
	.st108{fill:url(#SVGID_47_);}
	.st109{fill:url(#SVGID_48_);}
	.st110{fill:url(#SVGID_49_);}
	.st111{fill:url(#SVGID_50_);}
	.st112{fill:url(#SVGID_51_);}
	.st113{fill:url(#SVGID_52_);}
	.st114{fill:url(#SVGID_53_);}
	.st115{fill:url(#SVGID_54_);}
	.st116{fill:url(#SVGID_55_);}
	.st117{fill:url(#SVGID_56_);}
	.st118{fill:url(#SVGID_57_);}
	.st119{fill:url(#SVGID_58_);}
	.st120{fill:url(#SVGID_59_);}
	.st121{fill:url(#SVGID_60_);}
	.st122{fill:url(#SVGID_61_);}
	.st123{fill:url(#SVGID_62_);}
	.st124{fill:url(#SVGID_63_);}
	.st125{fill:url(#SVGID_64_);}
	.st126{fill:url(#SVGID_65_);}
	.st127{fill:url(#SVGID_66_);}
	.st128{fill:url(#SVGID_67_);}
	.st129{fill:url(#SVGID_68_);}
	.st130{fill:url(#SVGID_69_);}
	.st131{fill:url(#SVGID_70_);}
	.st132{fill:url(#SVGID_71_);}
	.st133{fill:url(#SVGID_72_);}
	.st134{fill:url(#SVGID_73_);}
	.st135{fill:url(#SVGID_74_);}
	.st136{fill:url(#SVGID_75_);}
	.st137{fill:url(#SVGID_76_);}
	.st138{fill:url(#SVGID_77_);}
	.st139{fill:url(#SVGID_78_);}
	.st140{fill:url(#SVGID_79_);}
	.st141{fill:url(#SVGID_80_);}
	.st142{fill:url(#SVGID_81_);}
	.st143{fill:url(#SVGID_82_);}
	.st144{fill:url(#SVGID_83_);}
	.st145{fill:url(#SVGID_84_);}
	.st146{fill:url(#SVGID_85_);}
	.st147{fill:url(#SVGID_86_);}
	.st148{fill:url(#SVGID_87_);}
	.st149{fill:url(#SVGID_88_);}
	.st150{fill:url(#SVGID_89_);}
	.st151{fill:url(#SVGID_90_);}
	.st152{fill:url(#SVGID_91_);}
	.st153{fill:url(#SVGID_92_);}
	.st154{fill:url(#SVGID_93_);}
	.st155{fill:url(#SVGID_94_);}
	.st156{fill:url(#SVGID_95_);}
	.st157{fill:url(#SVGID_96_);}
	.st158{fill:url(#SVGID_97_);}
	.st159{fill:url(#SVGID_98_);}
	.st160{fill:url(#SVGID_99_);}
	.st161{fill:url(#SVGID_100_);}
	.st162{fill:url(#SVGID_101_);}
	.st163{fill:url(#SVGID_102_);}
	.st164{fill:url(#SVGID_103_);}
	.st165{fill:url(#SVGID_104_);}
	.st166{fill:url(#SVGID_105_);}
	.st167{fill:url(#SVGID_106_);}
	.st168{fill:url(#SVGID_107_);}
	.st169{fill:url(#SVGID_108_);}
	.st170{fill:url(#SVGID_109_);}
	.st171{fill:url(#SVGID_110_);}
	.st172{fill:url(#SVGID_111_);}
	.st173{fill:url(#SVGID_112_);}
	.st174{fill:url(#SVGID_113_);}
	.st175{fill:url(#SVGID_114_);}
	.st176{fill:url(#SVGID_115_);}
	.st177{fill:url(#SVGID_116_);}
	.st178{fill:url(#SVGID_117_);}
	.st179{fill:url(#SVGID_118_);}
	.st180{fill:url(#SVGID_119_);}
	.st181{fill:url(#SVGID_120_);}
	.st182{fill:url(#SVGID_121_);}
	.st183{fill:url(#SVGID_122_);}
	.st184{fill:url(#SVGID_123_);}
	.st185{fill:url(#SVGID_124_);}
	.st186{fill:url(#SVGID_125_);}
	.st187{fill:url(#SVGID_126_);}
	.st188{fill:url(#SVGID_127_);}
	.st189{fill:url(#SVGID_128_);}
	.st190{fill:url(#SVGID_129_);}
	.st191{fill:url(#SVGID_130_);}
	.st192{fill:url(#SVGID_131_);}
	.st193{fill:url(#SVGID_132_);}
	.st194{fill:url(#SVGID_133_);}
	.st195{fill:url(#SVGID_134_);}
	.st196{fill:url(#SVGID_135_);}
	.st197{fill:url(#SVGID_136_);}
</style>
<g id="Layer_2">
</g>
<g id="Layer_3">
	<g>
		<path class="st12" d="M447.94,705.94c-0.88-1.93-0.28-5.79-0.37-7.85c-0.16-3.84-0.35-7.69-0.47-11.53
			c-0.25-7.64-0.33-15.31,0.26-22.94c1.53-19.61,4.8-39.19,4.72-58.9c-0.05-12.22-1.56-24.43-4.45-36.31
			c-1.44-5.94-3.24-11.79-5.36-17.52c-1.4-3.77-2.59-9.63-6.58-11.52c-0.62-0.29-3.31,19.85-39.81,57.35c1,0-36.5-40.05-37-100.28
			c0,0-22.48,28.1-78.49,27.44c-0.02,0.67,4.99,36.49,17.49,57.41c16.21,27.14,37.23,50.4,64.24,67.4
			c7.9,4.97,16.21,9.27,24.38,13.79c17.03,9.42,34.35,19.6,50.2,30.92C441.33,696.71,445.58,700.78,447.94,705.94z"/>
		<g>
			<g>
				<path d="M436.19,601.77c-2.19-0.5-4.43-1.59-6.52-2.54c-2.46-1.12-4.9-2.31-7.38-3.37c-5.48-2.35-10.75-4.88-15.7-8.22
					c-1.08-0.73-2.67-0.4-3.8,0.06c-0.43,0.18-2.65,1.41-1.6,2.12c5.2,3.51,10.7,6.21,16.45,8.68c4.92,2.1,9.7,4.99,14.95,6.19
					c1.3,0.3,3.09-0.26,4.1-1.1C437.63,602.79,437.33,602.03,436.19,601.77L436.19,601.77z"/>
			</g>
		</g>
		<g>
			<g>
				<path d="M341.39,528.16c4.87,3.89,9.9,7.55,14.99,11.14c3.63,2.56,7.23,5.19,10.98,7.57c0.71,0.45,3.34,1.84,2.67-0.21
					c-0.65-1.98-2.91-4.01-4.6-5.09c-3.66-2.33-7.18-4.9-10.73-7.4c-2.08-1.47-4.16-2.92-6.21-4.42c-0.83-0.6-1.88-1.4-3.17-2.38
					c-1.32-1.01-2.62-2.04-3.92-3.08c-0.51-0.41-3.48-2.75-3.76-1.11c-0.12,0.7,0.72,1.75,1.07,2.21
					C339.47,526.42,340.38,527.36,341.39,528.16L341.39,528.16z"/>
			</g>
		</g>
		<g>
			<g>
				<path d="M329.9,593.55c1.21-16.28,5.66-32.24,12.99-46.82c0.13-0.26,0.03-1.31,0.04-1.46c0.01-1.18,0.02-2.36,0.01-3.54
					c0-1.18,0-2.36-0.01-3.54c0-0.34-0.18-1.19-0.04-1.46c-7.39,14.71-11.79,30.76-13.01,47.18c-0.15,2.03-0.04,4.11-0.03,6.15
					c0,1,0,1.99,0.02,2.99C329.86,593.14,329.87,594.03,329.9,593.55L329.9,593.55z"/>
			</g>
		</g>
		<g>
			<g>
				<path d="M294.89,558.73c2-9.67,4-19.33,6-29c0.32-1.54,0.05-3.43,0.05-5c0-1.18,0-2.36-0.01-3.54c0-0.44-0.12-1.04-0.04-1.46
					c-2,9.67-4,19.33-6,29c-0.32,1.54-0.05,3.43-0.05,5c0,1.18,0,2.36,0.01,3.54C294.86,557.71,294.98,558.3,294.89,558.73
					L294.89,558.73z"/>
			</g>
		</g>
		<g>
			<g>
				<path class="st13" d="M448.29,696.45c-3.55-13.71-9.17-26.86-15.4-39.55c-7.21-14.66-15.42-28.82-24.13-42.64
					c-8.78-13.92-18.09-27.5-27.82-40.77c-8.59-11.73-17.51-23.23-26.82-34.4c-6.6-7.91-13.36-15.77-20.74-22.98
					c-0.64-0.62-1.28-1.24-1.94-1.85c-1.29-1.2-6.66,0.97-5.42,2.12c7.05,6.56,13.42,13.89,19.65,21.22
					c9.12,10.73,17.83,21.82,26.24,33.11c9.76,13.1,19.12,26.5,27.96,40.23c8.88,13.79,17.27,27.92,24.74,42.53
					c6.55,12.82,12.52,26.08,16.61,39.9c0.45,1.53,0.88,3.07,1.28,4.61C442.92,699.65,448.72,698.13,448.29,696.45L448.29,696.45z"
					/>
			</g>
		</g>
		<path class="st12" d="M147.5,706.16c13.31-11.35,25.6-22.78,40.61-31.95c15.56-9.51,33.02-15.78,48.17-25.87
			c12.18-8.11,23.92-17.82,34.07-28.38c5.26-5.47,10.17-11.28,14.64-17.42c1.37-1.88,14.18-20.14,12.89-21.24
			c1,0.85-14.98-22.25-17.49-57.41c-0.02,0.67-16.51-1.16-27.51-2.16c0,0,2.74-10.31,2.37-10.16c-0.74,0.31-21.37-13.67-21.37-13.67
			s6,47.83-37,96.83c0,0-30.46-36.95-36.23-55.47c0.3,0.95-2.44,4.18-2.87,4.95c-8.04,14.11-12.58,30.12-14.55,46.18
			c-2.12,17.32,0.97,34.49,2.58,51.72c1.72,18.5,2.72,37.07,2.99,55.66C148.84,700.71,148.57,703.43,147.5,706.16z"/>
		<g>
			<g>
				<path d="M214.89,586.73c2.71,6.1,4.84,12.45,6.35,18.96c0.86,3.75,1.52,7.54,1.96,11.37c0.21,1.77,0.37,3.55,0.48,5.33
					c0.05,0.79,0.09,1.59,0.12,2.38c0.02,0.43,0.03,0.85,0.04,1.28c0.05,1.95-0.01-0.93,0.01-3.83c-0.01,2.28-0.03,4.56,0.02,6.84
					c0,0.1-0.01,0.98,0.04,0.5c0.08-0.75,0.03-1.55,0.03-2.3c0.05-9.44-0.14-18.75-1.95-28.04c-1.5-7.74-3.9-15.28-7.09-22.48
					c0.1,0.22-0.03,1.37-0.04,1.46c-0.01,1.18-0.02,2.36-0.01,3.54c0,1.18,0,2.36,0.01,3.54
					C214.86,585.66,214.73,586.37,214.89,586.73L214.89,586.73z"/>
			</g>
		</g>
		<g>
			<path class="st14" d="M230.39,537.23c5-2,13.33-3.67,18-5"/>
			<g>
				<path d="M231.67,538.93c0.14-0.06,0.28-0.11,0.42-0.17c0.71-0.28-0.41,0.14,0.03-0.01c0.35-0.12,0.7-0.25,1.06-0.36
					c0.71-0.23,1.42-0.45,2.14-0.66c1.61-0.47,3.24-0.9,4.87-1.31c2.91-0.74,5.85-1.4,8.74-2.22c1.13-0.32,2.74-1.36,2.37-2.76
					c-0.37-1.38-2.32-1.52-3.43-1.2c-6.25,1.77-12.69,2.88-18.75,5.28c-1.08,0.43-2.19,1.86-1.37,2.98
					C228.63,539.72,230.5,539.4,231.67,538.93L231.67,538.93z"/>
			</g>
		</g>
		<g>
			<g>
				<path d="M209.59,582.6c-19.02,5.31-37.21,13.44-53.96,23.88c-1,0.62-0.62,1.46,0.43,1.59c1.42,0.17,2.92-0.36,4.1-1.1
					c15.51-9.67,32.43-17.21,50.04-22.12c0.69-0.19,2.83-0.84,2.6-1.9C212.56,581.93,210.12,582.46,209.59,582.6L209.59,582.6z"/>
			</g>
		</g>
		<g>
			<g>
				<path class="st15" d="M153.66,702.06c4.3-14.19,9.55-28.08,15.69-41.58c5.79-12.73,12.35-25.11,19.5-37.13
					c6.79-11.42,14.1-22.52,21.71-33.4c7.5-10.71,15.27-21.22,23.1-31.69c7.65-10.23,15.35-20.43,22.84-30.78
					c0.94-1.3,1.88-2.59,2.81-3.9c2.14-2.99-3.3-3.85-4.85-1.7c-7.47,10.41-15.17,20.66-22.85,30.92
					c-7.81,10.44-15.61,20.89-23.15,31.53c-7.82,11.03-15.36,22.25-22.41,33.79c-7.24,11.86-13.94,24.06-19.89,36.62
					c-6.32,13.33-11.79,27.06-16.32,41.11c-0.59,1.84-1.17,3.69-1.73,5.55C147.15,704.59,152.91,704.51,153.66,702.06L153.66,702.06
					z"/>
			</g>
		</g>
		<path class="st16" d="M360.76,299.86c0.58-18.83-2.42-37.73-8.51-55.55c-5.78-16.92-15.01-31.7-23.91-47.06
			c-3.18-5.49-6.33-11-9.46-16.52c0,0-20.87-37.06-20.94-44.53c-4.38,10.34-8.86,20.64-13.58,30.83
			c-8.08,17.43-19.23,33.15-29.32,49.43c-9.63,15.52-15.06,32.05-17.58,50.13c-1.52,10.96-2.1,22.04-2.3,33.1
			c-0.56,0.1,16.72-10.95,34.72-15.95c0,0,51.75-8.52,90.88,17.24"/>
		<line class="st17" x1="261.89" y1="218.73" x2="297.89" y2="249.73"/>
		<line class="st17" x1="330.89" y1="219.73" x2="297.89" y2="249.73"/>
		<line class="st17" x1="297.89" y1="135.73" x2="297.89" y2="282.73"/>
		<path class="st18" d="M18.39,346.23c0,0,62.5-36.5,110.5-12.5c0.5,0.5,10.89,3.47,21.2,17.48c0.61,0.03-33.91,21.54-25.3,67.78
			c-0.79,0.48-15.39,1.24-28.39,8.24C96.39,428.23,41.39,402.23,18.39,346.23z"/>
		<path class="st18" d="M163.33,467.19c0,0-7.44,14.75-9.44,27.65c0,0.79-35,36.89-112,26.89c0,0,6-64,54.5-94.5
			c0,1,10.29-6.98,28.39-8.24C124.99,418.47,127.77,448.65,163.33,467.19"/>
		<path class="st18" d="M196.89,594.73c0,0-51-53.79-43-99.89c0-0.21,1.89-14.19,9.44-27.65c-0.89-0.92,28.56,16.38,57.56-1.54
			c1,0.16,13,15.42,13,32.25C234.89,498.56,238.89,545.73,196.89,594.73z"/>
		<path class="st18" d="M150.61,225.23c0,0-35.72,59.5-21.72,108.5c0,0,11.39,3.97,21.2,17.48c-0.39-0.97,23.53-19.75,57.17-12.12
			c-0.72-0.73,3.64-17.41,13.64-26.89C220.89,311.25,209.33,261.73,150.61,225.23z"/>
		<path class="st18" d="M207.25,339.09c0,0,5.14-40.72,62.64-53.79c1-0.15,4.5,47.2,28,79.06c1,0.73-9.6,17.87-40.05,26.37
			C256.94,391.73,255.39,352.23,207.25,339.09"/>
		<path class="st18" d="M255.26,511.57l-21.37-13.67c0,0,0.57-15.25-12.21-30.71c0.43-0.92,28.43-12.95,36.32-48.2
			c-0.22,0.49,14.64-0.07,34.77,16.34C293.01,436.14,261.89,468.73,255.26,511.57"/>
		<line class="st19" x1="236.89" y1="354.73" x2="278.89" y2="329.73"/>
		<path class="st20" d="M297.89,364.36c0,0-6.1,16.37-40.05,26.37c0.1,0,4.05,20,0.16,28.25c-0.22-0.51,21.64,2.93,34.77,16.34
			c0.25,0.82,21.13-23.74,42.63-25.16c0-0.85-0.45-7.43,0.52-13.43C335.86,396.73,304.89,382.73,297.89,364.36z"/>
		<line class="st21" x1="241.89" y1="450.73" x2="272.89" y2="464.73"/>
		<circle class="st18" cx="191.39" cy="405.23" r="68"/>
		<line class="st17" x1="244.89" y1="268.73" x2="266.89" y2="283.73"/>
		<path class="st17" d="M351.89,274.73c-6.33,4.67-12.67,9.33-19,14"/>
		<ellipse class="st22" cx="191.89" cy="422.23" rx="10" ry="9.5"/>
		<path class="st23" d="M199.44,413.22c0.76,3.4-3.87,8.01-7.05,8.01c-3.56,0-8-3.17-8-7c0-4.09,5-3,10-3
			c1.45,0,4.42,0.05,4.97,1.67C199.39,413,199.42,413.11,199.44,413.22z"/>
		<path class="st20" d="M576.89,346.73c0,0-50-33-109.5-14.5c1,0-19.5,11.47-23.5,18.98c0-0.97,33.69,25.68,25.34,66.6
			c-0.69-0.16,25.68,4.42,31.17,5.67C499.38,422.98,543.89,416.73,576.89,346.73z"/>
		<path class="st24" d="M467.26,384.73c35.54-12.33,72.58-25.17,108.12-37.5"/>
		<path class="st20" d="M553.89,520.73c0,0-9.98-61.5-53.49-97.25c0.98,0.5-28.83-5.59-31.17-5.67
			c-0.69-0.16-0.34,29.76-35.34,47.84c0,0.16,5,24.08,11,32.08C445.89,497.73,480.89,534.73,553.89,520.73z"/>
		<line class="st24" x1="455" y1="448.45" x2="553.39" y2="519.23"/>
		<path class="st20" d="M395.89,596.73c0,0,45-36,49-99c0,0-9-15.16-11-32.08c0,0.16-27.69,17.09-60.85,0.58
			c-0.31,0.99-8.15,20.94-14.15,30.22C358.89,497.01,356.89,549.73,395.89,596.73z"/>
		<line class="st24" x1="403.39" y1="473.23" x2="396.39" y2="595.23"/>
		<path class="st20" d="M392.13,338.09c0,0-9.74-17.86-15.74-23.86c0,0,5-46,69-89c0,1,31,47,22,107c0,0-18,9.97-23.5,18.98
			C443.89,351.25,423.39,332.23,392.13,338.09z"/>
		<line class="st24" x1="444.39" y1="228.23" x2="417.39" y2="337.23"/>
		<path class="st20" d="M252.89,521.73c0,0,63,14.45,106-25.28c0,0.55,11.31-23.72,14.15-30.22c-0.31,0.99-33.15-15.65-37.65-56.08
			C336.39,409.3,275.89,414.73,252.89,521.73z"/>
		<line class="st24" x1="255.39" y1="520.23" x2="350.89" y2="448.73"/>
		<path class="st20" d="M335.91,396.73c-5.93-1.54-11.43-5.2-16.21-8.89c-13.24-10.23-23.68-24.54-31.31-39.32
			c-10.22-19.82-15.19-42.86-18.51-64.79c0,0,90.49-15.28,122.24,54.36C391.64,337.37,342.94,344.73,335.91,396.73"/>
		<line class="st24" x1="271.89" y1="285.73" x2="356.89" y2="355.73"/>
		<ellipse class="st20" cx="402.89" cy="405.23" rx="67.5" ry="68"/>
		<path class="st25" d="M417.39,423.23c-0.37,5.51-3.5,10.5-12.5,10.5c-11,0-16.18-4.99-16.5-10.5c-0.5-8.5,6.49-10,14.5-10
			C410.9,413.23,417.89,415.73,417.39,423.23z"/>
		<ellipse class="st26" cx="402.39" cy="425.23" rx="9.5" ry="4.5"/>
		<ellipse class="st23" cx="364.39" cy="395.23" rx="15" ry="16"/>
		<ellipse class="st23" cx="156.39" cy="395.23" rx="15" ry="16"/>
		<ellipse class="st23" cx="230.39" cy="395.23" rx="15" ry="16"/>
		<ellipse class="st23" cx="440.89" cy="395.23" rx="15.5" ry="16"/>
		<circle class="st27" cx="367.89" cy="390.73" r="6"/>
		<circle class="st27" cx="233.89" cy="390.73" r="6"/>
		<circle class="st27" cx="157.89" cy="390.73" r="6"/>
		<circle class="st27" cx="362.39" cy="402.23" r="3.5"/>
		<circle class="st27" cx="223.39" cy="403.23" r="2.5"/>
		<circle class="st27" cx="156.39" cy="403.23" r="2.5"/>
		<circle class="st27" cx="437.39" cy="402.23" r="3.5"/>
		<circle class="st27" cx="443.89" cy="390.73" r="6"/>
	</g>
</g>
<g id="Layer_4">
</g>
<g id="Layer_5">
</g>
<g id="Layer_6">
</g>
</svg>
