<?xml version="1.0" encoding="utf-8"?>
<!-- Generator: Adobe Illustrator 24.3.0, SVG Export Plug-In . SVG Version: 6.00 Build 0)  -->
<svg version="1.1" xmlns="http://www.w3.org/2000/svg" xmlns:xlink="http://www.w3.org/1999/xlink" x="0px" y="0px"
	 viewBox="0 0 595.28 841.89" style="enable-background:new 0 0 595.28 841.89;" xml:space="preserve">
<style type="text/css">
	.st0{fill:#683335;stroke:#000000;stroke-miterlimit:10;}
	.st1{fill:#1AB8D2;stroke:#000000;stroke-miterlimit:10;}
	.st2{fill:#733E90;stroke:#000000;stroke-miterlimit:10;}
	.st3{fill:#8CC04D;stroke:#000000;stroke-miterlimit:10;}
	.st4{fill:#FCEA12;stroke:#000000;stroke-miterlimit:10;}
	.st5{fill:#63343C;}
	.st6{fill:#8FC14D;stroke:#000000;stroke-miterlimit:10;}
	.st7{fill:#513331;}
	.st8{fill:#64313E;stroke:#000000;stroke-miterlimit:10;}
	.st9{fill:#F49513;stroke:#000000;stroke-miterlimit:10;}
	.st10{fill:#F8E91F;stroke:#000000;stroke-miterlimit:10;}
	.st11{fill:#F39317;stroke:#000000;stroke-miterlimit:10;}
	.st12{fill:#0FA438;stroke:#000000;stroke-width:2;stroke-miterlimit:10;}
	.st13{fill:#04632D;}
	.st14{fill:#B22322;}
	.st15{fill:#05662E;}
	.st16{fill:#0DA338;stroke:#000000;stroke-width:2;stroke-miterlimit:10;}
	.st17{fill:none;stroke:#07642E;stroke-width:2;stroke-miterlimit:10;}
	.st18{fill:#B22322;stroke:#000000;stroke-width:2;stroke-miterlimit:10;}
	.st19{fill:#7F1710;stroke:#7F1710;stroke-width:2;stroke-miterlimit:10;}
	.st20{fill:#FFD700;stroke:#000000;stroke-width:2;stroke-miterlimit:10;}
	.st21{fill:none;stroke:#78170E;stroke-width:2;stroke-miterlimit:10;}
	.st22{fill:none;stroke:#000000;stroke-width:2;stroke-miterlimit:10;}
	.st23{stroke:#000000;stroke-width:2;stroke-miterlimit:10;}
	.st24{fill:none;stroke:#B17513;stroke-width:2;stroke-miterlimit:10;}
	.st25{fill:#B52428;stroke:#000000;stroke-width:2;stroke-miterlimit:10;}
	.st26{fill:#E23258;}
	.st27{fill:#FFFFFF;}
	.st28{fill:#EE7429;stroke:#000000;stroke-width:2;stroke-miterlimit:10;}
	.st29{fill:#8ABF4F;stroke:#000000;stroke-width:2;stroke-miterlimit:10;}
	.st30{fill:#B9B7B5;stroke:#000000;stroke-width:2;stroke-miterlimit:10;}
	.st31{fill:#FCBF0E;stroke:#000000;stroke-miterlimit:10;}
	.st32{fill:#EE712B;stroke:#000000;stroke-miterlimit:10;}
	.st33{fill:#8ABF4C;stroke:#000000;stroke-width:2;stroke-miterlimit:10;}
	.st34{fill:#8ABF4C;stroke:#000000;stroke-miterlimit:10;}
	.st35{fill:#FFFFFF;stroke:#000000;stroke-width:2;stroke-miterlimit:10;}
	.st36{stroke:#000000;stroke-miterlimit:10;}
	.st37{fill:#B77B45;stroke:#000000;stroke-miterlimit:10;}
	.st38{fill:#FDC83C;stroke:#000000;stroke-miterlimit:10;}
	.st39{fill:#FECB3D;stroke:#000000;stroke-miterlimit:10;}
	.st40{fill:#A6CE88;stroke:#000000;stroke-width:2;stroke-miterlimit:10;}
	.st41{fill:#A6CE88;stroke:#000000;stroke-miterlimit:10;}
	.st42{fill:#F6B5C1;stroke:#000000;stroke-width:2;stroke-miterlimit:10;}
	.st43{fill:#FCDBBA;stroke:#000000;stroke-width:2;stroke-miterlimit:10;}
	.st44{fill:#FDFEFD;}
	.st45{fill:#FDD9BA;stroke:#000000;stroke-width:2;stroke-miterlimit:10;}
	.st46{fill:#F6F099;stroke:#000000;stroke-width:2;stroke-miterlimit:10;}
	.st47{fill:#F7BDCB;stroke:#000000;stroke-miterlimit:10;}
	.st48{fill:#BCE1E6;stroke:#000000;stroke-width:2;stroke-miterlimit:10;}
	.st49{fill:#F7BCCC;stroke:#000000;stroke-width:2;stroke-miterlimit:10;}
	.st50{fill:#C0E3EA;stroke:#000000;stroke-miterlimit:10;}
	.st51{fill:#F6B5C1;}
	.st52{fill:#FFFFFF;stroke:#FFFFFF;stroke-width:2;stroke-miterlimit:10;}
	.st53{fill:#30538C;stroke:#000000;stroke-width:2;stroke-miterlimit:10;}
	.st54{fill:#FDC83C;stroke:#000000;stroke-width:2;stroke-miterlimit:10;}
	.st55{fill:#88CFED;stroke:#000000;stroke-width:2;stroke-miterlimit:10;}
	.st56{fill:#D52586;}
	.st57{fill:#1BA038;stroke:#000000;stroke-width:2;stroke-miterlimit:10;}
	.st58{fill:#1BA038;}
	.st59{enable-background:new    ;}
	.st60{fill:#818181;}
	.st61{fill:#9A9A9A;}
	.st62{fill:#AFAFAF;}
	.st63{clip-path:url(#SVGID_2_);}
	.st64{fill:#FCDF02;}
	.st65{fill:#663413;}
	.st66{fill:url(#SVGID_5_);}
	.st67{fill:url(#SVGID_6_);}
	.st68{fill:url(#SVGID_7_);}
	.st69{fill:url(#SVGID_8_);}
	.st70{fill:url(#SVGID_9_);}
	.st71{fill:url(#SVGID_10_);}
	.st72{fill:url(#SVGID_11_);}
	.st73{fill:url(#SVGID_12_);}
	.st74{fill:url(#SVGID_13_);}
	.st75{fill:url(#SVGID_14_);}
	.st76{fill:url(#SVGID_15_);}
	.st77{fill:url(#SVGID_16_);}
	.st78{fill:url(#SVGID_17_);}
	.st79{fill:url(#SVGID_18_);}
	.st80{fill:url(#SVGID_19_);}
	.st81{fill:url(#SVGID_20_);}
	.st82{fill:url(#SVGID_21_);}
	.st83{fill:url(#SVGID_22_);}
	.st84{fill:url(#SVGID_23_);}
	.st85{fill:url(#SVGID_24_);}
	.st86{fill:url(#SVGID_25_);}
	.st87{fill:url(#SVGID_26_);}
	.st88{fill:url(#SVGID_27_);}
	.st89{fill:url(#SVGID_28_);}
	.st90{fill:url(#SVGID_29_);}
	.st91{fill:url(#SVGID_30_);}
	.st92{fill:url(#SVGID_31_);}
	.st93{fill:url(#SVGID_32_);}
	.st94{fill:url(#SVGID_33_);}
	.st95{fill:url(#SVGID_34_);}
	.st96{fill:url(#SVGID_35_);}
	.st97{fill:url(#SVGID_36_);}
	.st98{fill:url(#SVGID_37_);}
	.st99{fill:url(#SVGID_38_);}
	.st100{fill:url(#SVGID_39_);}
	.st101{fill:url(#SVGID_40_);}
	.st102{fill:url(#SVGID_41_);}
	.st103{fill:url(#SVGID_42_);}
	.st104{fill:url(#SVGID_43_);}
	.st105{fill:url(#SVGID_44_);}
	.st106{fill:url(#SVGID_45_);}
	.st107{fill:url(#SVGID_46_);}
	.st108{fill:url(#SVGID_47_);}
	.st109{fill:url(#SVGID_48_);}
	.st110{fill:url(#SVGID_49_);}
	.st111{fill:url(#SVGID_50_);}
	.st112{fill:url(#SVGID_51_);}
	.st113{fill:url(#SVGID_52_);}
	.st114{fill:url(#SVGID_53_);}
	.st115{fill:url(#SVGID_54_);}
	.st116{fill:url(#SVGID_55_);}
	.st117{fill:url(#SVGID_56_);}
	.st118{fill:url(#SVGID_57_);}
	.st119{fill:url(#SVGID_58_);}
	.st120{fill:url(#SVGID_59_);}
	.st121{fill:url(#SVGID_60_);}
	.st122{fill:url(#SVGID_61_);}
	.st123{fill:url(#SVGID_62_);}
	.st124{fill:url(#SVGID_63_);}
	.st125{fill:url(#SVGID_64_);}
	.st126{fill:url(#SVGID_65_);}
	.st127{fill:url(#SVGID_66_);}
	.st128{fill:url(#SVGID_67_);}
	.st129{fill:url(#SVGID_68_);}
	.st130{fill:url(#SVGID_69_);}
	.st131{fill:url(#SVGID_70_);}
	.st132{fill:url(#SVGID_71_);}
	.st133{fill:url(#SVGID_72_);}
	.st134{fill:url(#SVGID_73_);}
	.st135{fill:url(#SVGID_74_);}
	.st136{fill:url(#SVGID_75_);}
	.st137{fill:url(#SVGID_76_);}
	.st138{fill:url(#SVGID_77_);}
	.st139{fill:url(#SVGID_78_);}
	.st140{fill:url(#SVGID_79_);}
	.st141{fill:url(#SVGID_80_);}
	.st142{fill:url(#SVGID_81_);}
	.st143{fill:url(#SVGID_82_);}
	.st144{fill:url(#SVGID_83_);}
	.st145{fill:url(#SVGID_84_);}
	.st146{fill:url(#SVGID_85_);}
	.st147{fill:url(#SVGID_86_);}
	.st148{fill:url(#SVGID_87_);}
	.st149{fill:url(#SVGID_88_);}
	.st150{fill:url(#SVGID_89_);}
	.st151{fill:url(#SVGID_90_);}
	.st152{fill:url(#SVGID_91_);}
	.st153{fill:url(#SVGID_92_);}
	.st154{fill:url(#SVGID_93_);}
	.st155{fill:url(#SVGID_94_);}
	.st156{fill:url(#SVGID_95_);}
	.st157{fill:url(#SVGID_96_);}
	.st158{fill:url(#SVGID_97_);}
	.st159{fill:url(#SVGID_98_);}
	.st160{fill:url(#SVGID_99_);}
	.st161{fill:url(#SVGID_100_);}
	.st162{fill:url(#SVGID_101_);}
	.st163{fill:url(#SVGID_102_);}
	.st164{fill:url(#SVGID_103_);}
	.st165{fill:url(#SVGID_104_);}
	.st166{fill:url(#SVGID_105_);}
	.st167{fill:url(#SVGID_106_);}
	.st168{fill:url(#SVGID_107_);}
	.st169{fill:url(#SVGID_108_);}
	.st170{fill:url(#SVGID_109_);}
	.st171{fill:url(#SVGID_110_);}
	.st172{fill:url(#SVGID_111_);}
	.st173{fill:url(#SVGID_112_);}
	.st174{fill:url(#SVGID_113_);}
	.st175{fill:url(#SVGID_114_);}
	.st176{fill:url(#SVGID_115_);}
	.st177{fill:url(#SVGID_116_);}
	.st178{fill:url(#SVGID_117_);}
	.st179{fill:url(#SVGID_118_);}
	.st180{fill:url(#SVGID_119_);}
	.st181{fill:url(#SVGID_120_);}
	.st182{fill:url(#SVGID_121_);}
	.st183{fill:url(#SVGID_122_);}
	.st184{fill:url(#SVGID_123_);}
	.st185{fill:url(#SVGID_124_);}
	.st186{fill:url(#SVGID_125_);}
	.st187{fill:url(#SVGID_126_);}
	.st188{fill:url(#SVGID_127_);}
	.st189{fill:url(#SVGID_128_);}
	.st190{fill:url(#SVGID_129_);}
	.st191{fill:url(#SVGID_130_);}
	.st192{fill:url(#SVGID_131_);}
	.st193{fill:url(#SVGID_132_);}
	.st194{fill:url(#SVGID_133_);}
	.st195{fill:url(#SVGID_134_);}
	.st196{fill:url(#SVGID_135_);}
	.st197{fill:url(#SVGID_136_);}
</style>
<g id="Layer_2">
</g>
<g id="Layer_3">
</g>
<g id="Layer_4">
	<g>
		<path class="st28" d="M245.36,572.44c-0.47,19.16,0.97,38.38,4.7,57.19c0.9,4.55,1.94,9.07,3.11,13.56
			c0.61,2.35,1.26,4.68,1.95,7.01c0.45,1.5,2.37,5.1,2.02,6.58c-0.52,2.24-7.7,5.45-9.67,6.95c-3.3,2.52-6.45,5.35-8.84,8.77
			c-1.07,1.53-1.8,3.38-1.67,5.24c0.08,1.1,0.5,2.24,1.38,2.91c0.47,0.36,1.03,0.57,1.59,0.76c7.52,2.57,15.42,2.25,23.15,1.08
			c5.47-0.83,10.95-1.58,16.36-2.77c6.32-1.4,13.91-2.07,14.94-9.83c0.97-7.31,1.5-14.72,2.3-22.06
			c1.37-12.64,2.63-25.29,3.55-37.97c0.61-8.5,1.72-17.57,0.57-26.07C300.54,584.19,261.05,583.89,245.36,572.44"/>
		<path class="st28" d="M363.22,571.15c-0.46,20.24-1.91,40.2-5.82,60.1c-1.66,8.44-4.48,15.98-7.44,23.93
			c7.48,4.61,15.09,10.17,20.58,17.1c0.77,0.97,1.51,2,1.85,3.18c2.3,7.97-11.44,8.57-16.07,8.44c-14.04-0.41-29.88-3.25-42.93-8.56
			c-0.33-0.13-0.67-0.28-0.86-0.58c-0.18-0.27-0.19-0.62-0.19-0.95c-0.23-14.38-1.16-28.64-2.04-42.99
			c-0.79-12.78-1.59-25.57-2.78-38.32c-0.27-2.86-0.35-5.91-1.07-8.71C306.92,584.19,346.75,583.31,363.22,571.15"/>
		<path class="st29" d="M430.68,524.99c3.78,8.97,3.13,19.93-1.92,28.29c-5.17,8.54-18.09,15.91-27.55,9.38
			c-8.11-5.6-9.48-18.55-8.99-27.45C393.13,534.77,408.68,536.99,430.68,524.99"/>
		<path class="st28" d="M236.68,463.99c0,0-4,10-5,15c0,0-4.32,18.44-5.69,32.74c-0.06,0.59-0.11,1.18-0.15,1.76
			c-0.32,0-11.05,19.5-32.11,16.5c-0.1,0,10.56-8,7.26-24c-0.62,0,5.69,0,5.69,0l-4.67-5v-39.78c0,0,27.84-36.45,55.26-53.34
			c0.83,0.23,46.41,30.11,98.41-1.89c0,0,32,25,45,48c0,0,21,26,30,71c0,0-20,12-45,10c0,0-5-68-11-71c0,0,9.6,19.45,9.8,71.22
			c0.4,0.55-1.8,32.78-37.8,43.78c-9.97,2.33-20.31,3.51-30.5,4.22c-20.21,1.42-41.27,0.52-60.56-6.13
			c-7.84-2.7-14.22-6.23-19.67-12.65c-5.83-6.88-10.27-16.2-10.27-25.34c0-6.57,0-13.14,0-19.72c0-0.8,0-1.59,0-2.39
			C225.68,516.99,230.68,469.99,236.68,463.99z"/>
		<path class="st30" d="M171.88,454.75h30.13v46.24l4.67,5h-5.69c0,0-7.31-18-27.31-12L171.88,454.75z"/>
		<path class="st31" d="M185.18,377.49c0,0-5.06,8.48-5.67,9.51c-9.56,16.09-14.33,24.14-15.36,32.73
			c-1.07,8.91,1.23,18.24,6.57,25.48c6.08,8.24,16.59,12.71,25.93,6.93c7.47-4.62,11.29-14.03,11.15-22.57
			c-0.01-0.69-0.05-1.37-0.11-2.06c-0.61-6.46-2.6-13.2-4.87-19.25c-2.32-6.19-5.18-12.17-8.45-17.91
			c-1.53-2.68-3.08-5.46-4.94-7.94C189.02,381.87,185.87,377.39,185.18,377.49z"/>
		<path class="st32" d="M185.71,407.02c-3.81,5.4-7.46,11.18-9.16,17.63c-2.13,8.08-1.36,17.83,4.08,24.49
			c1.23,1.5,2.98,3.42,4.82,4.17c2.26,0.93,4.34-1.83,5.85-3.57C202.36,436.96,196.67,417.9,185.71,407.02z"/>
		<path class="st33" d="M200.81,296.02c0,0-9.14-0.04-13.14,8.96c-6.19,13.92,0.33,32,16.07,34.98c-0.14,0.04-7.56-18.91-0.81-43.95
			C202.42,295.95,200.81,296.02,200.81,296.02"/>
		<path class="st33" d="M409.18,294.49c0,0,10.53,1.7,14,10.92c5.37,14.26-2.19,31.93-18.07,33.99c0.14,0.04,5.78-20,3.07-42.91"/>
		<path class="st34" d="M203.74,339.97c4.93,17.21,14.67,33.35,26.56,46.24c3.74,4.06,7.74,7.88,12,11.39
			c12.51,10.32,27.44,17.73,43.4,20.83c24.08,4.67,48.73-0.48,69.97-12.44c27.81-15.68,49.01-46.77,51.9-78.74
			c0.47-5.18,1.04-10.35,1.24-15.55c0.27-6.92,0.13-12.65-2.06-19.21c-1.19-3.56-2.53-7.05-4.11-10.46
			c-4.8-10.31-11.64-19.87-20.85-26.68c-5.7-4.21-12.22-7.24-19.12-8.87c0-0.01-9.6-1.49-14.3,0c0.6-0.01-31.7,9.49-33.7,9.49
			c1,0-10,2-18,0c0,0-35-10-40-8c0,0-16.34,0.01-23.67,5.5c-0.66,0.99-19.38,8.71-29.35,40.1
			C198.78,308.91,199.41,324.86,203.74,339.97z"/>
		<g>
			<g>
				<path d="M336.35,366.66c-6.1,6.03-14.13,10.42-22.53,12.4c-11.61,2.73-23.49,0.11-33.55-6.05c-2.91-1.78-5.37-3.5-7.77-5.85
					c-1.73-1.69-4.38,0.96-2.65,2.65c5.96,5.84,14,10.12,21.97,12.37c12.67,3.57,26.14,1.3,37.37-5.39c3.52-2.1,6.88-4.59,9.8-7.48
					C340.72,367.62,338.07,364.96,336.35,366.66L336.35,366.66z"/>
			</g>
		</g>
		<g>
			<g>
				<path d="M267.98,376.99c0.08-0.23,0.16-0.46,0.25-0.68c0.04-0.11,0.09-0.22,0.13-0.34c0.13-0.33-0.08,0.17,0.02-0.05
					c0.25-0.55,0.5-1.1,0.79-1.63c0.66-1.24,1.46-2.45,2.32-3.48c0.93-1.1,1.96-2.11,3.08-3.01c0.08-0.06,0.33-0.26,0.12-0.1
					c0.14-0.11,0.28-0.21,0.42-0.31c0.22-0.16,0.45-0.32,0.67-0.47c0.43-0.29,0.87-0.56,1.32-0.82c0.88-0.5,1.18-1.7,0.67-2.57
					c-0.52-0.88-1.68-1.18-2.57-0.67c-5.08,2.92-8.91,7.61-10.86,13.12c-0.33,0.93,0.37,2.09,1.31,2.31
					C266.73,378.54,267.63,377.98,267.98,376.99L267.98,376.99z"/>
			</g>
		</g>
		<g>
			<g>
				<path d="M333.85,365.81c1.74,1.51,2.84,2.9,3.87,4.93c0.52,1.03,0.91,2.1,1.2,3.32c0.12,0.49,0.21,0.98,0.29,1.47
					c0.08,0.48-0.02-0.26,0,0.01c0.01,0.11,0.03,0.23,0.04,0.34c0.02,0.2,0.04,0.4,0.05,0.61c0.07,0.98,0.81,1.92,1.88,1.88
					c0.96-0.04,1.95-0.83,1.88-1.88c-0.37-5.1-2.67-9.96-6.55-13.33c-0.76-0.66-1.9-0.75-2.65,0
					C333.17,363.84,333.08,365.15,333.85,365.81L333.85,365.81z"/>
			</g>
		</g>
		<circle class="st35" cx="266.18" cy="326.49" r="18.5"/>
		<circle class="st35" cx="344.18" cy="326.49" r="18.5"/>
		<circle class="st36" cx="342.68" cy="327.99" r="11"/>
		<circle class="st36" cx="267.68" cy="327.99" r="11"/>
		<path class="st37" d="M303.67,157.98c0.43,13.84-10.6,24.87-22.99,29c0,0-31.99,8-54.99,36.99
			c-14.06,17.73-24.23,42.87-25.06,65.4c-0.08,2.11-0.33,4.67,0.19,6.65c0.52,1.99,2.75-2.23,2.84-2.43
			c0.79-1.72,1.37-3.56,2.05-5.33c1.07-2.79,1.95-5.81,3.32-8.47c5.51-10.65,13.42-20.37,23.98-26.31
			c21.26-11.96,42.09-1.43,63.67,2.5c0,0,11,2,18,0c3.15-0.01,6.97-1.78,9.96-2.63c5.51-1.56,10.95-3.25,16.37-5.06
			c14.72-4.92,30.7-2.17,42.55,7.68c10.38,8.62,17.69,20.45,22.11,33.1c0.81,2.31,1.31,4.8,2.26,7.03c0.53,1.26,1.5-1.06,1.56-1.28
			c0.12-0.4-0.21-1.22-0.25-1.64c-0.19-1.77-0.57-3.55-0.87-5.31c-0.89-5.2-1.87-10.39-2.97-15.55
			c-3.79-17.64-10.04-34.51-20.81-49.18c-5.18-7.05-10.97-13.65-17.18-19.8c-12.53-12.41-26.76-23-41.63-32.42
			C318.6,166.39,311.27,161.8,303.67,157.98z"/>
		<ellipse class="st29" cx="181.68" cy="513.49" rx="19.5" ry="21"/>
	</g>
</g>
<g id="Layer_5">
</g>
<g id="Layer_6">
</g>
</svg>
